<?xml version="1.0" encoding="UTF-8"?>
<svg version="1.1" xmlns="http://www.w3.org/2000/svg" width="320" height="320">
<path d="M0 0 C105.6 0 211.2 0 320 0 C320 105.6 320 211.2 320 320 C214.4 320 108.8 320 0 320 C0 214.4 0 108.8 0 0 Z " fill="#010101" transform="translate(0,0)"/>
<path d="M0 0 C1.07056641 -0.00128906 2.14113281 -0.00257812 3.24414062 -0.00390625 C4.93506836 0.00189453 4.93506836 0.00189453 6.66015625 0.0078125 C8.3452832 0.00201172 8.3452832 0.00201172 10.06445312 -0.00390625 C11.67223633 -0.00197266 11.67223633 -0.00197266 13.3125 0 C14.79544556 0.00169189 14.79544556 0.00169189 16.30834961 0.00341797 C18.72265625 0.1328125 18.72265625 0.1328125 20.72265625 1.1328125 C20.72265625 2.1228125 20.72265625 3.1128125 20.72265625 4.1328125 C21.38265625 4.1328125 22.04265625 4.1328125 22.72265625 4.1328125 C22.84640625 5.1640625 22.97015625 6.1953125 23.09765625 7.2578125 C23.66506483 10.77574571 24.38784023 13.83503175 25.72265625 17.1328125 C26.38265625 17.4628125 27.04265625 17.7928125 27.72265625 18.1328125 C30.1080864 22.00551489 31.81054167 26.23978368 33.34765625 30.5078125 C34.43293119 34.11666389 34.43293119 34.11666389 36.72265625 36.1328125 C36.72265625 37.1228125 36.72265625 38.1128125 36.72265625 39.1328125 C37.38265625 39.1328125 38.04265625 39.1328125 38.72265625 39.1328125 C39.05265625 37.4828125 39.38265625 35.8328125 39.72265625 34.1328125 C40.38265625 34.1328125 41.04265625 34.1328125 41.72265625 34.1328125 C41.84640625 33.5759375 41.97015625 33.0190625 42.09765625 32.4453125 C42.72265625 30.1328125 42.72265625 30.1328125 43.72265625 27.8203125 C44.915813 24.61370373 45.32397883 21.52157057 45.72265625 18.1328125 C46.38265625 18.1328125 47.04265625 18.1328125 47.72265625 18.1328125 C47.87734375 17.0809375 47.87734375 17.0809375 48.03515625 16.0078125 C48.81624628 12.74143603 50.14324368 10.0856273 51.72265625 7.1328125 C52.38265625 7.1328125 53.04265625 7.1328125 53.72265625 7.1328125 C53.86703125 6.5346875 54.01140625 5.9365625 54.16015625 5.3203125 C54.60990015 3.57130846 55.15157966 1.84604227 55.72265625 0.1328125 C63.97265625 0.1328125 72.22265625 0.1328125 80.72265625 0.1328125 C80.74520713 10.80701325 80.76357125 21.4811983 80.77446842 32.15541744 C80.77969728 37.11135172 80.78679499 42.06726892 80.7980957 47.02319336 C80.80892447 51.80180086 80.81493306 56.58039188 80.81753349 61.3590107 C80.81938776 63.18634869 80.82300841 65.01368574 80.82838631 66.84101677 C80.83559661 69.39134579 80.8366472 71.94160587 80.83618164 74.49194336 C80.83977692 75.25510864 80.84337219 76.01827393 80.84707642 76.80456543 C80.83670841 82.01876034 80.83670841 82.01876034 79.72265625 83.1328125 C78.25787119 83.23164586 76.78842667 83.26360539 75.3203125 83.265625 C74.43021484 83.26691406 73.54011719 83.26820313 72.62304688 83.26953125 C71.21829102 83.26373047 71.21829102 83.26373047 69.78515625 83.2578125 C68.85251953 83.26167969 67.91988281 83.26554687 66.95898438 83.26953125 C66.06759766 83.26824219 65.17621094 83.26695312 64.2578125 83.265625 C63.43676025 83.26449707 62.61570801 83.26336914 61.76977539 83.26220703 C59.72265625 83.1328125 59.72265625 83.1328125 57.72265625 82.1328125 C57.39265625 67.9428125 57.06265625 53.7528125 56.72265625 39.1328125 C54.77755625 42.0504625 54.26989308 43.75818535 53.72265625 47.1328125 C53.06265625 47.1328125 52.40265625 47.1328125 51.72265625 47.1328125 C51.64015625 47.6484375 51.55765625 48.1640625 51.47265625 48.6953125 C50.41403853 52.13582011 48.56926342 55.06999165 46.72265625 58.1328125 C46.33207031 59.02484375 45.94148437 59.916875 45.5390625 60.8359375 C43.72265625 63.1328125 43.72265625 63.1328125 40.3671875 63.62109375 C39.10261719 63.56308594 37.83804688 63.50507812 36.53515625 63.4453125 C35.26285156 63.40019531 33.99054688 63.35507813 32.6796875 63.30859375 C31.21595703 63.22158203 31.21595703 63.22158203 29.72265625 63.1328125 C29.20703125 61.9365625 28.69140625 60.7403125 28.16015625 59.5078125 C26.2471993 55.20194525 24.19909715 50.9738249 22.09765625 46.7578125 C21.79657959 46.15114746 21.49550293 45.54448242 21.18530273 44.91943359 C19.82072315 42.19939443 18.41390817 39.66969039 16.72265625 37.1328125 C16.71234879 37.69435532 16.70204132 38.25589813 16.69142151 38.8344574 C16.5835794 44.65774716 16.46896417 50.48087514 16.3503418 56.30395508 C16.30692118 58.47970203 16.26525154 60.65548464 16.2253418 62.83129883 C16.16781123 65.95144418 16.10406802 69.07140883 16.0390625 72.19140625 C16.02235001 73.17056503 16.00563751 74.14972382 15.98841858 75.15855408 C15.96847336 76.05941238 15.94852814 76.96027069 15.92797852 77.88842773 C15.91243423 78.68562729 15.89688995 79.48282684 15.88087463 80.30418396 C15.72265625 82.1328125 15.72265625 82.1328125 14.72265625 83.1328125 C11.91102245 83.22143242 9.1240737 83.24803605 6.3125 83.23046875 C5.47046524 83.2290538 4.62843048 83.22763885 3.76087952 83.22618103 C1.0606029 83.22056513 -1.63959203 83.20800998 -4.33984375 83.1953125 C-6.16601443 83.19029955 -7.99218641 83.18573629 -9.81835938 83.18164062 C-14.30471917 83.17059054 -18.79101759 83.15331529 -23.27734375 83.1328125 C-25.27734375 78.1328125 -25.27734375 78.1328125 -27.27734375 66.1328125 C-42.62234375 66.6278125 -42.62234375 66.6278125 -58.27734375 67.1328125 C-59.26734375 70.1028125 -60.25734375 73.0728125 -61.27734375 76.1328125 C-62.26734375 78.4428125 -63.25734375 80.7528125 -64.27734375 83.1328125 C-88.03734375 83.1328125 -111.79734375 83.1328125 -136.27734375 83.1328125 C-136.27734375 61.0228125 -136.27734375 38.9128125 -136.27734375 16.1328125 C-146.67234375 16.6278125 -146.67234375 16.6278125 -157.27734375 17.1328125 C-157.60734375 38.5828125 -157.93734375 60.0328125 -158.27734375 82.1328125 C-164.87734375 82.1328125 -171.47734375 82.1328125 -178.27734375 82.1328125 C-178.27734375 60.3528125 -178.27734375 38.5728125 -178.27734375 16.1328125 C-186.85734375 16.1328125 -195.43734375 16.1328125 -204.27734375 16.1328125 C-204.27734375 11.5128125 -204.27734375 6.8928125 -204.27734375 2.1328125 C-162.36734375 2.1328125 -120.45734375 2.1328125 -77.27734375 2.1328125 C-77.27734375 6.7528125 -77.27734375 11.3728125 -77.27734375 16.1328125 C-90.14734375 16.1328125 -103.01734375 16.1328125 -116.27734375 16.1328125 C-115.78234375 23.0628125 -115.78234375 23.0628125 -115.27734375 30.1328125 C-97.95234375 30.6278125 -97.95234375 30.6278125 -80.27734375 31.1328125 C-80.27734375 36.4128125 -80.27734375 41.6928125 -80.27734375 47.1328125 C-91.49734375 47.1328125 -102.71734375 47.1328125 -114.27734375 47.1328125 C-114.27734375 53.0728125 -114.27734375 59.0128125 -114.27734375 65.1328125 C-103.05734375 65.1328125 -91.83734375 65.1328125 -80.27734375 65.1328125 C-79.61734375 61.5028125 -78.95734375 57.8728125 -78.27734375 54.1328125 C-77.28734375 54.1328125 -76.29734375 54.1328125 -75.27734375 54.1328125 C-75.14199219 53.41351563 -75.00664062 52.69421875 -74.8671875 51.953125 C-74.30325829 49.25672177 -73.6193419 46.64922073 -72.83984375 44.0078125 C-72.47052734 42.73550781 -72.47052734 42.73550781 -72.09375 41.4375 C-71.27734375 39.1328125 -71.27734375 39.1328125 -69.27734375 36.1328125 C-68.96796875 35.2046875 -68.65859375 34.2765625 -68.33984375 33.3203125 C-67.25671596 30.07092912 -65.864543 27.16292016 -64.27734375 24.1328125 C-63.61734375 24.1328125 -62.95734375 24.1328125 -62.27734375 24.1328125 C-62.27734375 22.8128125 -62.27734375 21.4928125 -62.27734375 20.1328125 C-61.61734375 20.1328125 -60.95734375 20.1328125 -60.27734375 20.1328125 C-60.12265625 18.864375 -60.12265625 18.864375 -59.96484375 17.5703125 C-59.20927788 13.79248317 -57.79196849 10.66693689 -56.27734375 7.1328125 C-55.90952836 5.13886592 -55.57039846 3.1391101 -55.27734375 1.1328125 C-51.36123891 0.95854494 -47.44612878 0.85197095 -43.52734375 0.7578125 C-41.86058594 0.68240234 -41.86058594 0.68240234 -40.16015625 0.60546875 C-37.09448873 0.55006512 -34.2939017 0.57893767 -31.27734375 1.1328125 C-27.78966602 4.61029234 -26.75327728 8.13155716 -25.77734375 12.8828125 C-24.65178753 17.87630226 -23.10010163 22.39101643 -21.046875 27.07421875 C-20.27734375 29.1328125 -20.27734375 29.1328125 -20.27734375 32.1328125 C-19.28734375 32.4628125 -18.29734375 32.7928125 -17.27734375 33.1328125 C-15.57201158 36.45372252 -15.27734375 38.31774034 -15.27734375 42.1328125 C-14.28734375 42.1328125 -13.29734375 42.1328125 -12.27734375 42.1328125 C-12.27734375 44.4428125 -12.27734375 46.7528125 -12.27734375 49.1328125 C-11.61734375 49.1328125 -10.95734375 49.1328125 -10.27734375 49.1328125 C-9.28734375 55.0728125 -9.28734375 55.0728125 -8.27734375 61.1328125 C-7.61734375 61.1328125 -6.95734375 61.1328125 -6.27734375 61.1328125 C-6.27956436 60.38334854 -6.28178497 59.63388458 -6.28407288 58.86170959 C-6.30407554 51.81298959 -6.31931775 44.76427935 -6.32915592 37.71553898 C-6.33438377 34.0913529 -6.34147962 30.4671902 -6.3527832 26.84301758 C-6.36361559 23.34821275 -6.36962133 19.85343046 -6.37222099 16.35861015 C-6.37497926 14.37041861 -6.38279063 12.38223619 -6.39064026 10.39405823 C-6.39071579 9.19288864 -6.39079132 7.99171906 -6.39086914 6.75415039 C-6.39308975 5.69047745 -6.39531036 4.6268045 -6.39759827 3.53089905 C-6.17527867 -0.90254463 -3.89592583 0.00444994 0 0 Z " fill="#FCFCFC" transform="translate(215.27734375,47.8671875)"/>
<path d="M0 0 C19 0 19 0 21 1 C22 3.2578125 22 3.2578125 23 6.125 C23.350625 7.12273437 23.70125 8.12046875 24.0625 9.1484375 C24.77875734 11.32705359 25.40909282 13.53409808 26 15.75 C26.82910894 18.44460404 27.65620836 20.30335683 29.0625 22.6875 C31 26 31 26 31.5625 28.375 C31.706875 28.91125 31.85125 29.4475 32 30 C32.99 30.33 33.98 30.66 35 31 C35.12761719 30.42507812 35.25523438 29.85015625 35.38671875 29.2578125 C36.00393152 26.985526 36.82390215 25.00974118 37.8125 22.875 C40.54609979 16.84119973 43.12914611 10.75770398 45.125 4.4375 C46 2 46 2 48 1 C49.36332016 0.90533739 50.73105517 0.86927825 52.09765625 0.8671875 C52.89880859 0.86589844 53.69996094 0.86460937 54.52539062 0.86328125 C55.36263672 0.86714844 56.19988281 0.87101563 57.0625 0.875 C57.90361328 0.87113281 58.74472656 0.86726562 59.61132812 0.86328125 C65.87337318 0.87337318 65.87337318 0.87337318 67 2 C67.12209924 3.41117702 67.17770872 4.82820459 67.20532227 6.24438477 C67.2352401 7.59567223 67.2352401 7.59567223 67.26576233 8.97425842 C67.28247482 9.95341721 67.29918732 10.93257599 67.31640625 11.94140625 C67.33718735 12.93881332 67.35796844 13.9362204 67.37937927 14.96385193 C67.44498637 18.16332843 67.50381134 21.36288982 67.5625 24.5625 C67.60567462 26.72592039 67.64928855 28.88933206 67.69335938 31.05273438 C67.80067903 36.36839874 67.90242427 41.68414834 68 47 C68.40992187 45.75863281 68.81984375 44.51726562 69.2421875 43.23828125 C69.78637789 41.5963275 70.33065319 39.9544019 70.875 38.3125 C71.14441406 37.49587891 71.41382812 36.67925781 71.69140625 35.83789062 C73.01832821 31.84094276 74.36949037 27.88631179 76 24 C76.66 24 77.32 24 78 24 C78 22.02 78 20.04 78 18 C78.66 18 79.32 18 80 18 C80 17.01 80 16.02 80 15 C80.66 15 81.32 15 82 15 C82.03738281 14.24074219 82.07476562 13.48148438 82.11328125 12.69921875 C82.17902344 11.70535156 82.24476562 10.71148437 82.3125 9.6875 C82.37050781 8.70136719 82.42851563 7.71523437 82.48828125 6.69921875 C83 4 83 4 84.015625 2.1796875 C87.281405 0.23821986 90.7459845 0.44679853 94.4375 0.4375 C95.20126953 0.40076172 95.96503906 0.36402344 96.75195312 0.32617188 C98.99878892 0.30857264 100.83965991 0.37400195 103 1 C105.53515625 4.03515625 105.53515625 4.03515625 107 7 C107.33 5.35 107.66 3.7 108 2 C140.34 2 172.68 2 206 2 C206 4.31 206 6.62 206 9 C206.66 9 207.32 9 208 9 C208.33 8.01 208.66 7.02 209 6 C211.35856685 4.84383978 213.54403449 3.88009271 216 3 C217.28197266 2.46439453 217.28197266 2.46439453 218.58984375 1.91796875 C223.23089981 0.66865813 227.59451433 0.7863462 232.375 0.875 C233.76525391 0.88853516 233.76525391 0.88853516 235.18359375 0.90234375 C237.45600077 0.92577063 239.7278618 0.95857252 242 1 C242 1.66 242 2.32 242 3 C242.61488281 2.98839844 243.22976563 2.97679687 243.86328125 2.96484375 C244.67152344 2.95582031 245.47976563 2.94679687 246.3125 2.9375 C247.51326172 2.92009766 247.51326172 2.92009766 248.73828125 2.90234375 C251 3 251 3 254 4 C254 8.95 254 13.9 254 19 C252.02 18.34 250.04 17.68 248 17 C248 16.34 248 15.68 248 15 C240.38118085 12.89825679 232.89413275 12.31002439 225 13 C224.01 13.66 223.02 14.32 222 15 C221.74984127 18.58357241 221.74984127 18.58357241 222 22 C228.92778369 24.24707254 228.92778369 24.24707254 236.0625 25.625 C239 26 239 26 240 27 C240.67289063 27.0721875 241.34578125 27.144375 242.0390625 27.21875 C247.26566699 27.78720245 250.56704564 28.82438313 254.125 32.8125 C258.10267142 38.51351853 257.65125695 44.31169451 257 51 C256.34 51 255.68 51 255 51 C254.814375 51.9590625 254.814375 51.9590625 254.625 52.9375 C254.41875 53.618125 254.2125 54.29875 254 55 C253.01 55.495 253.01 55.495 252 56 C251.690625 56.639375 251.38125 57.27875 251.0625 57.9375 C250 60 250 60 247 62 C244.3125 62.125 244.3125 62.125 242 62 C242 62.66 242 63.32 242 64 C237.08636266 65.28181844 232.22608914 65.14724543 227.1875 65.125 C226.32318359 65.12886719 225.45886719 65.13273437 224.56835938 65.13671875 C219.28878077 65.12874957 214.22430593 64.76453257 209 64 C209 63.34 209 62.68 209 62 C208.43267151 62.32531708 207.86534302 62.65063416 207.28082275 62.98580933 C204.79587794 64.09076492 203.20881981 64.24257942 200.50683594 64.22705078 C199.61399902 64.22680908 198.72116211 64.22656738 197.80126953 64.22631836 C196.87169434 64.21608643 195.94211914 64.20585449 194.984375 64.1953125 C194.12344238 64.19329834 193.26250977 64.19128418 192.37548828 64.18920898 C189.1669378 64.17876412 185.95846342 64.15084151 182.75 64.125 C171.98375 64.063125 171.98375 64.063125 161 64 C160.67 47.5 160.34 31 160 14 C154.72 13.67 149.44 13.34 144 13 C144 29.83 144 46.66 144 64 C138.72 64 133.44 64 128 64 C128 47.5 128 31 128 14 C122.06 14 116.12 14 110 14 C110.639375 15.65 111.27875 17.3 111.9375 19 C113.18013043 22.39017291 114.21155491 25.46063435 114.5 29.0625 C115.22655641 34.78413169 117.34563421 40.00038868 120.12890625 45.046875 C121 47 121 47 121 51 C121.66 51 122.32 51 123 51 C123.67305018 52.60149886 124.33822227 54.20631029 125 55.8125 C125.556875 57.15248047 125.556875 57.15248047 126.125 58.51953125 C127 61 127 61 127 64 C121.39 64 115.78 64 110 64 C108.68 60.04 107.36 56.08 106 52 C98.41 52 90.82 52 83 52 C80.49152482 56.46225016 80.49152482 56.46225016 80 64 C70.43 64 60.86 64 51 64 C51 50.8 51 37.6 51 24 C47.17780688 26.54812875 47.04883561 28.27650924 45.8125 32.625 C45.46832031 33.81351563 45.12414062 35.00203125 44.76953125 36.2265625 C44.51558594 37.14179688 44.26164062 38.05703125 44 39 C43.34 39 42.68 39 42 39 C41.86722656 39.63808594 41.73445313 40.27617187 41.59765625 40.93359375 C41.42105469 41.75988281 41.24445313 42.58617187 41.0625 43.4375 C40.88847656 44.26121094 40.71445313 45.08492187 40.53515625 45.93359375 C40 48 40 48 39 49 C36.98035801 49.07244053 34.95832876 49.08377188 32.9375 49.0625 C31.83277344 49.05347656 30.72804688 49.04445312 29.58984375 49.03515625 C28.73519531 49.02355469 27.88054688 49.01195312 27 49 C24 42.375 24 42.375 24 39 C22.515 38.505 22.515 38.505 21 38 C19.515 33.05 19.515 33.05 18 28 C17.67 39.88 17.34 51.76 17 64 C11.92281793 66.53859104 5.67646212 65 0 65 C0 43.55 0 22.1 0 0 Z " fill="#F8F8F8" transform="translate(32,198)"/>
<path d="M0 0 C19 0 19 0 21 1 C22 3.2578125 22 3.2578125 23 6.125 C23.350625 7.12273437 23.70125 8.12046875 24.0625 9.1484375 C24.77875734 11.32705359 25.40909282 13.53409808 26 15.75 C26.82910894 18.44460404 27.65620836 20.30335683 29.0625 22.6875 C31 26 31 26 31.5625 28.375 C31.706875 28.91125 31.85125 29.4475 32 30 C32.99 30.33 33.98 30.66 35 31 C35.12761719 30.42507812 35.25523438 29.85015625 35.38671875 29.2578125 C36.00393152 26.985526 36.82390215 25.00974118 37.8125 22.875 C40.54609979 16.84119973 43.12914611 10.75770398 45.125 4.4375 C46 2 46 2 48 1 C49.36332016 0.90533739 50.73105517 0.86927825 52.09765625 0.8671875 C52.89880859 0.86589844 53.69996094 0.86460937 54.52539062 0.86328125 C55.36263672 0.86714844 56.19988281 0.87101563 57.0625 0.875 C57.90361328 0.87113281 58.74472656 0.86726562 59.61132812 0.86328125 C65.87337318 0.87337318 65.87337318 0.87337318 67 2 C67.12209924 3.41117702 67.17770872 4.82820459 67.20532227 6.24438477 C67.2352401 7.59567223 67.2352401 7.59567223 67.26576233 8.97425842 C67.28247482 9.95341721 67.29918732 10.93257599 67.31640625 11.94140625 C67.33718735 12.93881332 67.35796844 13.9362204 67.37937927 14.96385193 C67.44498637 18.16332843 67.50381134 21.36288982 67.5625 24.5625 C67.60567462 26.72592039 67.64928855 28.88933206 67.69335938 31.05273438 C67.80067903 36.36839874 67.90242427 41.68414834 68 47 C68.40992187 45.75863281 68.81984375 44.51726562 69.2421875 43.23828125 C69.78637789 41.5963275 70.33065319 39.9544019 70.875 38.3125 C71.14441406 37.49587891 71.41382812 36.67925781 71.69140625 35.83789062 C73.01832821 31.84094276 74.36949037 27.88631179 76 24 C76.66 24 77.32 24 78 24 C78 22.02 78 20.04 78 18 C78.66 18 79.32 18 80 18 C80 17.01 80 16.02 80 15 C80.66 15 81.32 15 82 15 C82.03738281 14.24074219 82.07476562 13.48148438 82.11328125 12.69921875 C82.17902344 11.70535156 82.24476562 10.71148437 82.3125 9.6875 C82.37050781 8.70136719 82.42851563 7.71523437 82.48828125 6.69921875 C83 4 83 4 84.015625 2.1796875 C87.281405 0.23821986 90.7459845 0.44679853 94.4375 0.4375 C95.20126953 0.40076172 95.96503906 0.36402344 96.75195312 0.32617188 C98.99878892 0.30857264 100.83965991 0.37400195 103 1 C105.53515625 4.03515625 105.53515625 4.03515625 107 7 C107.33 5.35 107.66 3.7 108 2 C140.34 2 172.68 2 206 2 C206 4.31 206 6.62 206 9 C206.66 9 207.32 9 208 9 C208.33 8.01 208.66 7.02 209 6 C209.33 6.66 209.66 7.32 210 8 C208.6875 10 208.6875 10 207 12 C206.01 12 205.02 12 204 12 C204 9.03 204 6.06 204 3 C172.65 3 141.3 3 109 3 C109 5.97 109 8.94 109 12 C110.35996094 11.98839844 111.71992188 11.97679687 113.12109375 11.96484375 C114.8932278 11.95546738 116.66536333 11.94636702 118.4375 11.9375 C119.78424805 11.92493164 119.78424805 11.92493164 121.15820312 11.91210938 C122.01220703 11.90888672 122.86621094 11.90566406 123.74609375 11.90234375 C124.53685303 11.89710693 125.3276123 11.89187012 126.14233398 11.88647461 C128 12 128 12 129 13 C129.09326716 14.56547048 129.11745582 16.13512772 129.11352539 17.70336914 C129.11344986 18.70433121 129.11337433 19.70529327 129.11329651 20.73658752 C129.10813522 21.8251152 129.10297394 22.91364288 129.09765625 24.03515625 C129.09553383 25.6977372 129.09553383 25.6977372 129.09336853 27.39390564 C129.08775033 30.95013069 129.07519475 34.50629383 129.0625 38.0625 C129.05748734 40.46679597 129.05292403 42.87109292 129.04882812 45.27539062 C129.03777499 51.18361777 129.02049816 57.09179837 129 63 C133.62 63 138.24 63 143 63 C143 46.83 143 30.66 143 14 C143.33 14 143.66 14 144 14 C144 30.5 144 47 144 64 C138.72 64 133.44 64 128 64 C128 47.5 128 31 128 14 C122.06 14 116.12 14 110 14 C110.639375 15.65 111.27875 17.3 111.9375 19 C113.18013043 22.39017291 114.21155491 25.46063435 114.5 29.0625 C115.22655641 34.78413169 117.34563421 40.00038868 120.12890625 45.046875 C121 47 121 47 121 51 C121.66 51 122.32 51 123 51 C123.67305018 52.60149886 124.33822227 54.20631029 125 55.8125 C125.556875 57.15248047 125.556875 57.15248047 126.125 58.51953125 C127 61 127 61 127 64 C121.39 64 115.78 64 110 64 C108.68 60.04 107.36 56.08 106 52 C98.41 52 90.82 52 83 52 C80.49152482 56.46225016 80.49152482 56.46225016 80 64 C70.43 64 60.86 64 51 64 C51 50.8 51 37.6 51 24 C47.17780688 26.54812875 47.04883561 28.27650924 45.8125 32.625 C45.46832031 33.81351563 45.12414062 35.00203125 44.76953125 36.2265625 C44.51558594 37.14179688 44.26164062 38.05703125 44 39 C43.34 39 42.68 39 42 39 C41.86722656 39.63808594 41.73445313 40.27617187 41.59765625 40.93359375 C41.42105469 41.75988281 41.24445313 42.58617187 41.0625 43.4375 C40.88847656 44.26121094 40.71445313 45.08492187 40.53515625 45.93359375 C40 48 40 48 39 49 C36.98035801 49.07244053 34.95832876 49.08377188 32.9375 49.0625 C31.83277344 49.05347656 30.72804688 49.04445312 29.58984375 49.03515625 C28.73519531 49.02355469 27.88054688 49.01195312 27 49 C24 42.375 24 42.375 24 39 C22.515 38.505 22.515 38.505 21 38 C19.515 33.05 19.515 33.05 18 28 C17.67 39.88 17.34 51.76 17 64 C11.92281793 66.53859104 5.67646212 65 0 65 C0 43.55 0 22.1 0 0 Z " fill="#F8F8F8" transform="translate(32,198)"/>
<path d="M0 0 C1.16781006 0.00523682 2.33562012 0.01047363 3.53881836 0.01586914 C4.79887695 0.0190918 6.05893555 0.02231445 7.35717773 0.02563477 C8.6976732 0.03399136 10.03816799 0.04245632 11.37866211 0.05102539 C12.72306153 0.05603879 14.06746271 0.06060197 15.41186523 0.06469727 C18.71331644 0.07653042 22.01474471 0.09446653 25.31616211 0.11352539 C25.31616211 4.40352539 25.31616211 8.69352539 25.31616211 13.11352539 C25.97616211 13.11352539 26.63616211 13.11352539 27.31616211 13.11352539 C27.56366211 14.69133789 27.56366211 14.69133789 27.81616211 16.30102539 C29.01163358 20.54967941 31.43262276 21.96482707 35.14819336 24.07055664 C40.75513959 26.7679524 45.90426938 27.67977438 52.05249023 28.23657227 C53.82048071 28.43184286 55.57196268 28.7646855 57.31616211 29.11352539 C59.60629864 32.54873019 59.49459184 34.09885639 59.31616211 38.11352539 C58.65616211 38.11352539 57.99616211 38.11352539 57.31616211 38.11352539 C57.31616211 38.77352539 57.31616211 39.43352539 57.31616211 40.11352539 C53.92034695 40.14267979 50.52456425 40.16037607 47.12866211 40.17602539 C46.16895508 40.1844043 45.20924805 40.1927832 44.22045898 40.20141602 C43.28911133 40.20463867 42.35776367 40.20786133 41.39819336 40.21118164 C40.54459229 40.21641846 39.69099121 40.22165527 38.81152344 40.22705078 C36.22369464 40.10931862 33.83954258 39.68459583 31.31616211 39.11352539 C31.31616211 38.45352539 31.31616211 37.79352539 31.31616211 37.11352539 C30.32616211 37.11352539 29.33616211 37.11352539 28.31616211 37.11352539 C28.31616211 36.45352539 28.31616211 35.79352539 28.31616211 35.11352539 C27.32616211 35.11352539 26.33616211 35.11352539 25.31616211 35.11352539 C25.33678711 35.91790039 25.35741211 36.72227539 25.37866211 37.55102539 C25.31616211 40.11352539 25.31616211 40.11352539 24.31616211 41.11352539 C22.25560901 41.21346071 20.19163621 41.24433445 18.12866211 41.24633789 C16.87311523 41.24762695 15.61756836 41.24891602 14.32397461 41.25024414 C13.666875 41.24814941 13.00977539 41.24605469 12.33276367 41.24389648 C10.32454876 41.23854773 8.31655752 41.2438423 6.30834961 41.25024414 C5.05280273 41.24895508 3.79725586 41.24766602 2.50366211 41.24633789 C1.3422168 41.24520996 0.18077148 41.24408203 -1.01586914 41.24291992 C-3.68383789 41.11352539 -3.68383789 41.11352539 -4.68383789 40.11352539 C-4.75708957 37.25084972 -4.77621994 34.4128064 -4.74633789 31.55102539 C-4.74182617 30.7447168 -4.73731445 29.9384082 -4.73266602 29.10766602 C-4.72084307 27.10958783 -4.70290703 25.11154756 -4.68383789 23.11352539 C-2.02205568 21.78263429 0.00355607 22.00083546 2.98022461 22.01586914 C4.10170898 22.0190918 5.22319336 22.02231445 6.37866211 22.02563477 C7.55428711 22.03401367 8.72991211 22.04239258 9.94116211 22.05102539 C11.12452148 22.05553711 12.30788086 22.06004883 13.52709961 22.06469727 C16.45683717 22.07651072 19.38647483 22.09298282 22.31616211 22.11352539 C22.29553711 21.02040039 22.27491211 19.92727539 22.25366211 18.80102539 C22.31616211 15.11352539 22.31616211 15.11352539 23.31616211 12.11352539 C14.40616211 12.11352539 5.49616211 12.11352539 -3.68383789 12.11352539 C-3.68383789 0.15582504 -3.68383789 0.15582504 0 0 Z " fill="#040404" transform="translate(211.683837890625,210.886474609375)"/>
<path d="M0 0 C1.07694122 -0.00281982 2.15388245 -0.00563965 3.26345825 -0.00854492 C5.05105057 -0.00550858 5.05105057 -0.00550858 6.87475586 -0.00241089 C8.12175262 -0.00416321 9.36874939 -0.00591553 10.65353394 -0.00772095 C14.08320565 -0.01137925 17.5128174 -0.01050596 20.94248581 -0.00734186 C24.52415805 -0.00481797 28.10582766 -0.00715588 31.6875 -0.00872803 C37.70337385 -0.01054964 43.71923543 -0.00814364 49.73510742 -0.00338745 C56.69982288 0.00205516 63.66450907 0.00029249 70.62922382 -0.00521386 C76.5986395 -0.00974523 82.56804635 -0.01039542 88.53746319 -0.00777519 C92.10726591 -0.00621255 95.67705485 -0.00601829 99.24685669 -0.00931168 C103.22439724 -0.01272461 107.20190475 -0.00800025 111.17944336 -0.00241089 C112.37117157 -0.00443512 113.56289978 -0.00645935 114.79074097 -0.00854492 C116.4061528 -0.00431519 116.4061528 -0.00431519 118.05419922 0 C118.99589462 0.00037703 119.93759003 0.00075405 120.90782166 0.0011425 C123.02709961 0.12698364 123.02709961 0.12698364 124.02709961 1.12698364 C124.02709961 7.06698364 124.02709961 13.00698364 124.02709961 19.12698364 C111.48709961 19.12698364 98.94709961 19.12698364 86.02709961 19.12698364 C86.02709961 22.75698364 86.02709961 26.38698364 86.02709961 30.12698364 C87.56418579 30.11912842 87.56418579 30.11912842 89.13232422 30.1111145 C92.92105237 30.09306395 96.7097767 30.08155145 100.49853516 30.072052 C102.14079425 30.0670119 103.78304884 30.06017986 105.42529297 30.05154419 C107.7808544 30.03946439 110.1363567 30.03375226 112.49194336 30.02932739 C113.23049057 30.02416611 113.96903778 30.01900482 114.72996521 30.01368713 C116.49608049 30.01349114 118.26207107 30.06503646 120.02709961 30.12698364 C121.02709961 31.12698364 121.02709961 31.12698364 121.12475586 34.72463989 C121.11808181 36.21295231 121.10612144 37.70124796 121.08959961 39.18948364 C121.08508789 39.94809692 121.08057617 40.70671021 121.07592773 41.48831177 C121.06410641 43.36790236 121.04617039 45.24745263 121.02709961 47.12698364 C120.69709961 47.12698364 120.36709961 47.12698364 120.02709961 47.12698364 C120.02709961 42.17698364 120.02709961 37.22698364 120.02709961 32.12698364 C118.97208252 32.13222046 117.91706543 32.13745728 116.83007812 32.14285278 C112.92953331 32.16090265 109.02899221 32.17241559 105.12841797 32.18191528 C103.43765645 32.18695554 101.74689932 32.19378769 100.05615234 32.2024231 C97.63109254 32.21450221 95.20609017 32.22021487 92.78100586 32.22463989 C91.64037437 32.23238182 91.64037437 32.23238182 90.47669983 32.24028015 C88.65977391 32.24047602 86.84296833 32.18895641 85.02709961 32.12698364 C84.69709961 31.79698364 84.36709961 31.46698364 84.02709961 31.12698364 C84.02709961 26.50698364 84.02709961 21.88698364 84.02709961 17.12698364 C96.89709961 17.12698364 109.76709961 17.12698364 123.02709961 17.12698364 C123.02709961 12.50698364 123.02709961 7.88698364 123.02709961 3.12698364 C81.11709961 3.12698364 39.20709961 3.12698364 -3.97290039 3.12698364 C-3.97290039 7.74698364 -3.97290039 12.36698364 -3.97290039 17.12698364 C4.60709961 17.12698364 13.18709961 17.12698364 22.02709961 17.12698364 C22.02709961 38.90698364 22.02709961 60.68698364 22.02709961 83.12698364 C28.62709961 83.12698364 35.22709961 83.12698364 42.02709961 83.12698364 C42.02186279 81.16317749 42.01662598 79.19937134 42.01123047 77.17605591 C41.99513322 70.70202485 41.98362751 64.22799851 41.97528744 57.75395298 C41.9700593 53.82709706 41.96296292 49.9002627 41.95166016 45.97341919 C41.94082881 42.18684107 41.93482225 38.40028374 41.93222237 34.61369133 C41.93036856 33.16594045 41.9267488 31.71819076 41.92136955 30.27044868 C41.91415594 28.2494123 41.91369153 26.22835517 41.91357422 24.20730591 C41.91135361 23.0548085 41.909133 21.9023111 41.90684509 20.71488953 C42.02709961 18.12698364 42.02709961 18.12698364 43.02709961 17.12698364 C49.95709961 17.12698364 56.88709961 17.12698364 64.02709961 17.12698364 C64.02709961 39.23698364 64.02709961 61.34698364 64.02709961 84.12698364 C99.66709961 83.63198364 99.66709961 83.63198364 136.02709961 83.12698364 C137.01709961 80.81698364 138.00709961 78.50698364 139.02709961 76.12698364 C140.14824151 78.87887741 140.1071265 79.92563889 138.99049377 82.73504639 C137.02709961 85.12698364 137.02709961 85.12698364 133.87046814 85.73498535 C132.56856033 85.7268985 131.26665253 85.71881165 129.92529297 85.71047974 C129.20630325 85.71281616 128.48731354 85.71515259 127.74653625 85.71755981 C125.36926731 85.71917517 122.99393713 85.68513875 120.61694336 85.65042114 C118.96693116 85.64363281 117.31690927 85.63890996 115.66688538 85.63616943 C112.2091154 85.62548764 108.75199117 85.59877805 105.29443359 85.55911255 C100.85662706 85.50820509 96.41919153 85.48309991 91.98113155 85.46817589 C87.75551708 85.45340103 83.52999028 85.42816484 79.30444336 85.40042114 C78.49492659 85.39551037 77.68540981 85.39059959 76.85136223 85.38554001 C74.56731451 85.36929894 72.28346627 85.34589495 69.99951172 85.31985474 C68.69839951 85.30699432 67.39728729 85.29413391 66.05674744 85.28088379 C63.02709961 85.12698364 63.02709961 85.12698364 61.02709961 84.12698364 C61.02709961 63.00698364 61.02709961 41.88698364 61.02709961 20.12698364 C55.41709961 20.12698364 49.80709961 20.12698364 44.02709961 20.12698364 C44.02709961 41.24698364 44.02709961 62.36698364 44.02709961 84.12698364 C36.43709961 84.12698364 28.84709961 84.12698364 21.02709961 84.12698364 C21.02709961 62.34698364 21.02709961 40.56698364 21.02709961 18.12698364 C12.44709961 18.12698364 3.86709961 18.12698364 -4.97290039 18.12698364 C-6.79406042 16.30582362 -6.10525119 13.820266 -6.10961914 11.40042114 C-6.10575195 10.65018677 -6.10188477 9.89995239 -6.09790039 9.12698364 C-6.10176758 8.37674927 -6.10563477 7.62651489 -6.10961914 6.85354614 C-6.09725253 0.00244115 -6.09725253 0.00244115 0 0 Z " fill="#6A6A6A" transform="translate(14.972900390625,46.873016357421875)"/>
<path d="M0 0 C2.8125 -0.25 2.8125 -0.25 6 0 C7.6875 1.9375 7.6875 1.9375 9 4 C9.99 4.33 10.98 4.66 12 5 C12 4.34 12 3.68 12 3 C13.32 3 14.64 3 16 3 C18.67927341 7.01891012 18.15601248 9.24161923 18 14 C19.65 14 21.3 14 23 14 C23.1875 17.3125 23.1875 17.3125 23 21 C22 22 21 23 20 24 C19.7496423 27.62535976 19.7496423 27.62535976 20 31 C16.6828589 32.4216319 13.55780196 33.39009109 10 34 C9.67 34.99 9.34 35.98 9 37 C6.69 37 4.38 37 2 37 C1.67 36.34 1.34 35.68 1 35 C-0.2375 35.061875 -1.475 35.12375 -2.75 35.1875 C-5.78211302 35.20362826 -6.82248296 35.10651023 -9.5 33.5 C-9.995 33.005 -10.49 32.51 -11 32 C-10.67 29.69 -10.34 27.38 -10 25 C-11.65 25 -13.3 25 -15 25 C-15 22.36 -15 19.72 -15 17 C-13.68 16.34 -12.36 15.68 -11 15 C-11 12.36 -11 9.72 -11 7 C-10.34 7 -9.68 7 -9 7 C-9 6.34 -9 5.68 -9 5 C-6.69 5.33 -4.38 5.66 -2 6 C-1.34 4.02 -0.68 2.04 0 0 Z " fill="#EBEBEB" transform="translate(284,163)"/>
<path d="M0 0 C1.16781006 0.00523682 2.33562012 0.01047363 3.53881836 0.01586914 C4.79887695 0.0190918 6.05893555 0.02231445 7.35717773 0.02563477 C8.6976732 0.03399136 10.03816799 0.04245632 11.37866211 0.05102539 C12.72306153 0.05603879 14.06746271 0.06060197 15.41186523 0.06469727 C18.71331644 0.07653042 22.01474471 0.09446653 25.31616211 0.11352539 C25.31616211 4.40352539 25.31616211 8.69352539 25.31616211 13.11352539 C25.97616211 13.11352539 26.63616211 13.11352539 27.31616211 13.11352539 C27.31616211 14.76352539 27.31616211 16.41352539 27.31616211 18.11352539 C26.98616211 17.45352539 26.65616211 16.79352539 26.31616211 16.11352539 C25.65616211 16.11352539 24.99616211 16.11352539 24.31616211 16.11352539 C24.33678711 17.24790039 24.35741211 18.38227539 24.37866211 19.55102539 C24.31616211 23.11352539 24.31616211 23.11352539 23.31616211 24.11352539 C21.462466 24.20090184 19.6054867 24.22050692 17.74975586 24.21118164 C16.62504883 24.20795898 15.5003418 24.20473633 14.34155273 24.20141602 C13.15754883 24.19303711 11.97354492 24.1846582 10.75366211 24.17602539 C9.56579102 24.17151367 8.37791992 24.16700195 7.15405273 24.16235352 C4.20806799 24.15052225 1.26210895 24.13258615 -1.68383789 24.11352539 C-1.68383789 28.73352539 -1.68383789 33.35352539 -1.68383789 38.11352539 C6.23616211 38.11352539 14.15616211 38.11352539 22.31616211 38.11352539 C22.31616211 36.46352539 22.31616211 34.81352539 22.31616211 33.11352539 C24.95616211 33.44352539 27.59616211 33.77352539 30.31616211 34.11352539 C30.31616211 34.77352539 30.31616211 35.43352539 30.31616211 36.11352539 C30.97616211 36.11352539 31.63616211 36.11352539 32.31616211 36.11352539 C32.31616211 36.77352539 32.31616211 37.43352539 32.31616211 38.11352539 C33.96616211 38.11352539 35.61616211 38.11352539 37.31616211 38.11352539 C37.64616211 38.77352539 37.97616211 39.43352539 38.31616211 40.11352539 C36.00616211 39.78352539 33.69616211 39.45352539 31.31616211 39.11352539 C31.31616211 38.45352539 31.31616211 37.79352539 31.31616211 37.11352539 C30.32616211 37.11352539 29.33616211 37.11352539 28.31616211 37.11352539 C28.31616211 36.45352539 28.31616211 35.79352539 28.31616211 35.11352539 C27.32616211 35.11352539 26.33616211 35.11352539 25.31616211 35.11352539 C25.33678711 35.91790039 25.35741211 36.72227539 25.37866211 37.55102539 C25.31616211 40.11352539 25.31616211 40.11352539 24.31616211 41.11352539 C22.25560901 41.21346071 20.19163621 41.24433445 18.12866211 41.24633789 C16.87311523 41.24762695 15.61756836 41.24891602 14.32397461 41.25024414 C13.666875 41.24814941 13.00977539 41.24605469 12.33276367 41.24389648 C10.32454876 41.23854773 8.31655752 41.2438423 6.30834961 41.25024414 C5.05280273 41.24895508 3.79725586 41.24766602 2.50366211 41.24633789 C1.3422168 41.24520996 0.18077148 41.24408203 -1.01586914 41.24291992 C-3.68383789 41.11352539 -3.68383789 41.11352539 -4.68383789 40.11352539 C-4.75708957 37.25084972 -4.77621994 34.4128064 -4.74633789 31.55102539 C-4.74182617 30.7447168 -4.73731445 29.9384082 -4.73266602 29.10766602 C-4.72084307 27.10958783 -4.70290703 25.11154756 -4.68383789 23.11352539 C-2.02205568 21.78263429 0.00355607 22.00083546 2.98022461 22.01586914 C4.10170898 22.0190918 5.22319336 22.02231445 6.37866211 22.02563477 C7.55428711 22.03401367 8.72991211 22.04239258 9.94116211 22.05102539 C11.12452148 22.05553711 12.30788086 22.06004883 13.52709961 22.06469727 C16.45683717 22.07651072 19.38647483 22.09298282 22.31616211 22.11352539 C22.29553711 21.02040039 22.27491211 19.92727539 22.25366211 18.80102539 C22.31616211 15.11352539 22.31616211 15.11352539 23.31616211 12.11352539 C14.40616211 12.11352539 5.49616211 12.11352539 -3.68383789 12.11352539 C-3.68383789 0.15582504 -3.68383789 0.15582504 0 0 Z " fill="#8B8B8B" transform="translate(211.683837890625,210.886474609375)"/>
<path d="M0 0 C5.94 0 11.88 0 18 0 C18 16.5 18 33 18 50 C23.28 50 28.56 50 34 50 C34 50.33 34 50.66 34 51 C22.78 51 11.56 51 0 51 C0 50.67 0 50.34 0 50 C5.61 50 11.22 50 17 50 C16.34 48.5975 15.68 47.195 15 45.75 C13.40783761 42.36665493 13 40.87950965 13 37 C12.34 37 11.68 37 11 37 C10.5875 35.88625 10.175 34.7725 9.75 33.625 C8.87093072 31.2585955 7.9654106 28.91836371 6.98046875 26.59375 C4.52108584 20.77228933 3.09822483 15.20693143 2 9 C1.3568875 5.9943423 0.677028 2.99826684 0 0 Z " fill="#121212" transform="translate(142,212)"/>
<path d="M0 0 C0.33 0 0.66 0 1 0 C1.33 4.29 1.66 8.58 2 13 C13.55 13.33 25.1 13.66 37 14 C37 19.28 37 24.56 37 30 C25.78 30 14.56 30 3 30 C3 35.94 3 41.88 3 48 C14.22 48 25.44 48 37 48 C37.66 44.37 38.32 40.74 39 37 C39.99 37 40.98 37 42 37 C42.20302734 35.92105469 42.20302734 35.92105469 42.41015625 34.8203125 C42.97408546 32.12390927 43.65800185 29.51640823 44.4375 26.875 C44.68371094 26.02679688 44.92992187 25.17859375 45.18359375 24.3046875 C46 22 46 22 48 19 C48.309375 18.071875 48.61875 17.14375 48.9375 16.1875 C50.02062779 12.93811662 51.41280075 10.03010766 53 7 C54 9 54 9 53.0625 12.125 C52.5365625 13.548125 52.5365625 13.548125 52 15 C51.34 15 50.68 15 50 15 C50.020625 15.804375 50.04125 16.60875 50.0625 17.4375 C50 20 50 20 49 21 C48.63239269 23.32817964 48.29758419 25.6618385 48 28 C47.01 28.33 46.02 28.66 45 29 C45.04125 30.19625 45.0825 31.3925 45.125 32.625 C45.13851708 36.42329953 44.42009753 39.44975618 43 43 C42.34 43 41.68 43 41 43 C41.0825 43.7425 41.165 44.485 41.25 45.25 C41 48 41 48 39.51464844 50.14746094 C35.97468769 52.75534658 32.73695749 52.50112544 28.515625 52.390625 C27.70003113 52.38496521 26.88443726 52.37930542 26.04412842 52.37347412 C23.44548228 52.35112727 20.84822758 52.30093622 18.25 52.25 C16.48569703 52.22993271 14.7213724 52.21168234 12.95703125 52.1953125 C8.63748672 52.1512683 4.31897907 52.08225422 0 52 C-1.44455415 47.66633755 -1.22455025 43.47709986 -1.25 38.9375 C-1.270625 38.01388672 -1.29125 37.09027344 -1.3125 36.13867188 C-1.31765625 35.25630859 -1.3228125 34.37394531 -1.328125 33.46484375 C-1.3374707 32.656521 -1.34681641 31.84819824 -1.35644531 31.01538086 C-1.18000488 30.01776733 -1.18000488 30.01776733 -1 29 C2.64304864 26.57130091 5.30722339 26.74324325 9.51171875 26.8046875 C10.23994339 26.8075174 10.96816803 26.81034729 11.71846008 26.81326294 C14.04164137 26.82444743 16.36443547 26.84954834 18.6875 26.875 C20.2636663 26.88503206 21.83983865 26.89415752 23.41601562 26.90234375 C27.27749267 26.92438104 31.13868071 26.95889859 35 27 C35 23.04 35 19.08 35 15 C34.34 15.33 33.68 15.66 33 16 C28.57418131 16.21141314 24.14465755 16.18579708 19.71435547 16.18530273 C17.5085935 16.18749147 15.30332984 16.2056586 13.09765625 16.22460938 C11.70052255 16.22754293 10.30338647 16.22952798 8.90625 16.23046875 C7.63072266 16.23457764 6.35519531 16.23868652 5.04101562 16.24291992 C2 16 2 16 0 14 C-0.1953125 10.7421875 -0.1953125 10.7421875 -0.125 6.875 C-0.10695313 5.59367187 -0.08890625 4.31234375 -0.0703125 2.9921875 C-0.04710938 2.00476563 -0.02390625 1.01734375 0 0 Z " fill="#D5D5D5" transform="translate(98,65)"/>
<path d="M0 0 C6.93 0 13.86 0 21 0 C21 22.11 21 44.22 21 67 C56.64 66.505 56.64 66.505 93 66 C93.99 63.69 94.98 61.38 96 59 C97.1211419 61.75189377 97.08002689 62.79865525 95.96339417 65.60806274 C94 68 94 68 90.84336853 68.60800171 C89.54146072 68.59991486 88.23955292 68.591828 86.89819336 68.58349609 C86.17920364 68.58583252 85.46021393 68.58816895 84.71943665 68.59057617 C82.3421677 68.59219153 79.96683752 68.55815511 77.58984375 68.5234375 C75.93983155 68.51664917 74.28980966 68.51192631 72.63978577 68.50918579 C69.18201579 68.49850399 65.72489156 68.47179441 62.26733398 68.43212891 C57.82952745 68.38122145 53.39209192 68.35611627 48.95403194 68.34119225 C44.72841747 68.32641739 40.50289067 68.30118119 36.27734375 68.2734375 C35.46782698 68.26852673 34.6583102 68.26361595 33.82426262 68.25855637 C31.5402149 68.2423153 29.25636666 68.21891131 26.97241211 68.19287109 C25.6712999 68.18001068 24.37018768 68.16715027 23.02964783 68.15390015 C20 68 20 68 18 67 C18 45.88 18 24.76 18 3 C12.39 3 6.78 3 1 3 C1 24.12 1 45.24 1 67 C0.34 67 -0.32 67 -1 67 C-1.02312635 58.4119428 -1.04091658 49.82389851 -1.05181217 41.23581791 C-1.05704036 37.248428 -1.06413684 33.26105933 -1.07543945 29.27368164 C-1.08627061 25.42874886 -1.09227732 21.58383655 -1.09487724 17.73888969 C-1.09673108 16.26881017 -1.10035091 14.79873182 -1.10573006 13.32866096 C-1.11294355 11.27645533 -1.11399081 9.22433533 -1.11352539 7.17211914 C-1.115746 6.00185684 -1.11796661 4.83159454 -1.12025452 3.62586975 C-1 1 -1 1 0 0 Z " fill="#1D1D1D" transform="translate(58,64)"/>
<path d="M0 0 C8.25 0 16.5 0 25 0 C25.02255088 10.67420075 25.040915 21.3483858 25.05181217 32.02260494 C25.05704103 36.97853922 25.06413874 41.93445642 25.07543945 46.89038086 C25.08626822 51.66898836 25.09227681 56.44757938 25.09487724 61.2261982 C25.09673151 63.05353619 25.10035216 64.88087324 25.10573006 66.70820427 C25.11294036 69.25853329 25.11399095 71.80879337 25.11352539 74.35913086 C25.11712067 75.12229614 25.12071594 75.88546143 25.12442017 76.67175293 C25.11405216 81.88594784 25.11405216 81.88594784 24 83 C22.53521494 83.09883336 21.06577042 83.13079289 19.59765625 83.1328125 C18.70755859 83.13410156 17.81746094 83.13539063 16.90039062 83.13671875 C15.49563477 83.13091797 15.49563477 83.13091797 14.0625 83.125 C13.12986328 83.12886719 12.19722656 83.13273437 11.23632812 83.13671875 C10.34494141 83.13542969 9.45355469 83.13414062 8.53515625 83.1328125 C7.714104 83.13168457 6.89305176 83.13055664 6.04711914 83.12939453 C4 83 4 83 2 82 C1.67 67.81 1.34 53.62 1 39 C-0.9451 41.91765 -1.45276317 43.62537285 -2 47 C-2.66 47 -3.32 47 -4 47 C-4.12375 47.639375 -4.2475 48.27875 -4.375 48.9375 C-4.58125 49.618125 -4.7875 50.29875 -5 51 C-5.99 51.495 -5.99 51.495 -7 52 C-5.62732066 47.53879215 -3.87968939 43.35535223 -1.9375 39.12109375 C-0.90915925 36.8846131 -0.90915925 36.8846131 0 34 C0.33 33.34 0.66 32.68 1 32 C2.32 31.67 3.64 31.34 5 31 C5 47.83 5 64.66 5 82 C10.94 82 16.88 82 23 82 C23 55.93 23 29.86 23 3 C15.41 3 7.82 3 0 3 C0 2.01 0 1.02 0 0 Z " fill="#A1A1A1" transform="translate(271,48)"/>
<path d="M0 0 C4.29 0 8.58 0 13 0 C13.33 1.32 13.66 2.64 14 4 C15.32 4.33 16.64 4.66 18 5 C18 9.29 18 13.58 18 18 C16.68 18.33 15.36 18.66 14 19 C13.67 20.32 13.34 21.64 13 23 C10.23723823 22.47731534 7.6739124 21.89130413 5 21 C5 21.66 5 22.32 5 23 C3.35 23 1.7 23 0 23 C-0.33 21.68 -0.66 20.36 -1 19 C-2.32 18.67 -3.64 18.34 -5 18 C-5 13.71 -5 9.42 -5 5 C-3.68 4.34 -2.36 3.68 -1 3 C-0.67 2.01 -0.34 1.02 0 0 Z " fill="#E5E5E5" transform="translate(296,199)"/>
<path d="M0 0 C1.98 0 3.96 0 6 0 C7 1 7 1 7.0625 4.5625 C7.041875 5.696875 7.02125 6.83125 7 8 C7.66 8 8.32 8 9 8 C9 9.65 9 11.3 9 13 C7.68 11.35 6.36 9.7 5 8 C4.98969254 8.56154282 4.97938507 9.12308563 4.96876526 9.7016449 C4.86092315 15.52493466 4.74630792 21.34806264 4.62768555 27.17114258 C4.58426493 29.34688953 4.54259529 31.52267214 4.50268555 33.69848633 C4.44515498 36.81863168 4.38141177 39.93859633 4.31640625 43.05859375 C4.29969376 44.03775253 4.28298126 45.01691132 4.26576233 46.02574158 C4.24581711 46.92659988 4.22587189 47.82745819 4.20532227 48.75561523 C4.18977798 49.55281479 4.1742337 50.35001434 4.15821838 51.17137146 C4 53 4 53 3 54 C0.1883662 54.08861992 -2.59858255 54.11522355 -5.41015625 54.09765625 C-6.25219101 54.0962413 -7.09422577 54.09482635 -7.96177673 54.09336853 C-10.66205335 54.08775263 -13.36224828 54.07519748 -16.0625 54.0625 C-17.88867068 54.05748705 -19.71484266 54.05292379 -21.54101562 54.04882812 C-26.02737542 54.03777804 -30.51367384 54.02050279 -35 54 C-37 49 -37 49 -39 37 C-54.345 37.495 -54.345 37.495 -70 38 C-70.99 40.97 -71.98 43.94 -73 47 C-73.66 47.99 -74.32 48.98 -75 50 C-74.855625 49.34 -74.71125 48.68 -74.5625 48 C-74.10557594 45.5630717 -73.81040684 43.21136074 -73.5625 40.75 C-73.376875 39.5125 -73.19125 38.275 -73 37 C-69.98786971 35.49393485 -66.88717378 35.87839669 -63.5859375 35.90234375 C-62.49147812 35.90446617 -62.49147812 35.90446617 -61.37490845 35.90663147 C-59.04156415 35.91223469 -56.70831536 35.92478765 -54.375 35.9375 C-52.79427222 35.94251459 -51.21354293 35.94707757 -49.6328125 35.95117188 C-45.75517146 35.96220516 -41.87760193 35.97947189 -38 36 C-38 36.99 -38 37.98 -38 39 C-37.34 39 -36.68 39 -36 39 C-36 41.64 -36 44.28 -36 47 C-35.01 47.33 -34.02 47.66 -33 48 C-33 48.99 -33 49.98 -33 51 C-16.665 51.495 -16.665 51.495 0 52 C0 34.84 0 17.68 0 0 Z " fill="#CFCFCF" transform="translate(227,77)"/>
<path d="M0 0 C19 0 19 0 21 1 C20.67 2.32 20.34 3.64 20 5 C20 4.34 20 3.68 20 3 C14.06 3 8.12 3 2 3 C2 22.8 2 42.6 2 63 C5.96 63 9.92 63 14 63 C14 49.8 14 36.6 14 23 C15.65 23.33 17.3 23.66 19 24 C18.83923477 24.58247498 18.67846954 25.16494995 18.51283264 25.76507568 C17.71811623 29.22844927 17.76069922 32.72783374 17.68359375 36.265625 C17.66281265 37.05902283 17.64203156 37.85242065 17.62062073 38.66986084 C17.55540027 41.19648844 17.49636856 43.72321721 17.4375 46.25 C17.3942886 47.96615616 17.35067347 49.68230222 17.30664062 51.3984375 C17.19974717 55.59885546 17.09840271 59.79937489 17 64 C11.92281793 66.53859104 5.67646212 65 0 65 C0 43.55 0 22.1 0 0 Z " fill="#969696" transform="translate(32,198)"/>
<path d="M0 0 C0.66 0 1.32 0 2 0 C2.04898438 0.62648438 2.09796875 1.25296875 2.1484375 1.8984375 C2.22320312 2.71570313 2.29796875 3.53296875 2.375 4.375 C2.44460937 5.18710938 2.51421875 5.99921875 2.5859375 6.8359375 C2.82892588 9.20334191 2.82892588 9.20334191 5 11 C5.93387072 13.09979415 6.80067734 15.22983284 7.625 17.375 C8.07101563 18.51710938 8.51703125 19.65921875 8.9765625 20.8359375 C10 24 10 24 10 28 C7.35409986 28.02684679 4.70846904 28.04676357 2.0625 28.0625 C1.30775391 28.07087891 0.55300781 28.07925781 -0.22460938 28.08789062 C-2.14994313 28.09652441 -4.07535581 28.05224333 -6 28 C-7 27 -7 27 -7.3125 23.4375 C-7.27564633 19.28777719 -6.02250559 16.72021311 -4.01953125 13.16015625 C-2.47935724 9.89687569 -1.97310391 6.54563607 -1.39453125 3.00390625 C-1 1 -1 1 0 0 Z " fill="#121212" transform="translate(171,71)"/>
<path d="M0 0 C8.91 0 17.82 0 27 0 C26.67 3.3 26.34 6.6 26 10 C17.42 10 8.84 10 0 10 C0 6.7 0 3.4 0 0 Z " fill="#0B0B0B" transform="translate(209,212)"/>
<path d="M0 0 C1.134375 0.020625 2.26875 0.04125 3.4375 0.0625 C3.4375 0.7225 3.4375 1.3825 3.4375 2.0625 C5.0875 2.0625 6.7375 2.0625 8.4375 2.0625 C8.9325 3.0525 8.9325 3.0525 9.4375 4.0625 C0.86607143 5.34821429 0.86607143 5.34821429 -2.5625 4.0625 C-2.8925 5.3825 -3.2225 6.7025 -3.5625 8.0625 C-4.8825 8.3925 -6.2025 8.7225 -7.5625 9.0625 C-7.5625 13.3525 -7.5625 17.6425 -7.5625 22.0625 C-5.9125 22.3925 -4.2625 22.7225 -2.5625 23.0625 C-2.5625 24.3825 -2.5625 25.7025 -2.5625 27.0625 C-0.9125 27.0625 0.7375 27.0625 2.4375 27.0625 C2.4375 26.4025 2.4375 25.7425 2.4375 25.0625 C3.4275 25.3925 4.4175 25.7225 5.4375 26.0625 C4.7775 26.0625 4.1175 26.0625 3.4375 26.0625 C3.4375 26.7225 3.4375 27.3825 3.4375 28.0625 C0.83167629 28.99315133 -0.20448224 29.21167407 -2.8125 28.125 C-3.67875 27.5990625 -3.67875 27.5990625 -4.5625 27.0625 C-4.5625 25.7425 -4.5625 24.4225 -4.5625 23.0625 C-7.2025 22.7325 -9.8425 22.4025 -12.5625 22.0625 C-12.5625 17.1125 -12.5625 12.1625 -12.5625 7.0625 C-16.5225 6.7325 -20.4825 6.4025 -24.5625 6.0625 C-24.5625 5.4025 -24.5625 4.7425 -24.5625 4.0625 C-27.70961178 4.11514095 -30.85413595 4.21037597 -34 4.3125 C-35.31774414 4.33376953 -35.31774414 4.33376953 -36.66210938 4.35546875 C-42.4180899 4.56786656 -46.65665526 5.62881637 -51.76977539 8.31152344 C-52.36137451 8.5593457 -52.95297363 8.80716797 -53.5625 9.0625 C-54.2225 8.7325 -54.8825 8.4025 -55.5625 8.0625 C-50.25085054 3.88906114 -46.50166674 2.75654753 -39.734375 2.6484375 C-38.98536926 2.62907135 -38.23636353 2.6097052 -37.46466064 2.5897522 C-35.08072164 2.53014284 -32.69673386 2.48364646 -30.3125 2.4375 C-28.69268769 2.39930299 -27.07289532 2.36025025 -25.453125 2.3203125 C-21.48974594 2.22445687 -17.52627181 2.14035754 -13.5625 2.0625 C-13.0675 3.5475 -13.0675 3.5475 -12.5625 5.0625 C-10.2525 5.0625 -7.9425 5.0625 -5.5625 5.0625 C-5.418125 4.423125 -5.27375 3.78375 -5.125 3.125 C-4.16977878 -0.37747781 -3.91378882 0.06866296 0 0 Z " fill="#545454" transform="translate(298.5625,194.9375)"/>
<path d="M0 0 C1.60584961 -0.00193359 1.60584961 -0.00193359 3.24414062 -0.00390625 C4.93506836 0.00189453 4.93506836 0.00189453 6.66015625 0.0078125 C8.3452832 0.00201172 8.3452832 0.00201172 10.06445312 -0.00390625 C11.67223633 -0.00197266 11.67223633 -0.00197266 13.3125 0 C14.79544556 0.00169189 14.79544556 0.00169189 16.30834961 0.00341797 C18.72265625 0.1328125 18.72265625 0.1328125 20.72265625 1.1328125 C20.72265625 2.1228125 20.72265625 3.1128125 20.72265625 4.1328125 C21.38265625 4.1328125 22.04265625 4.1328125 22.72265625 4.1328125 C22.84640625 5.1640625 22.97015625 6.1953125 23.09765625 7.2578125 C23.66506483 10.77574571 24.38784023 13.83503175 25.72265625 17.1328125 C26.38265625 17.4628125 27.04265625 17.7928125 27.72265625 18.1328125 C30.90835091 23.12290453 32.49250846 28.3921228 33.72265625 34.1328125 C32.73265625 34.1328125 31.74265625 34.1328125 30.72265625 34.1328125 C28.59370158 30.58455472 28.23098436 27.19943737 27.72265625 23.1328125 C27.44625611 20.8452149 27.44625611 20.8452149 26.72265625 19.1328125 C25.73265625 18.8028125 24.74265625 18.4728125 23.72265625 18.1328125 C22.9921875 16.06640625 22.9921875 16.06640625 22.53515625 13.5703125 C22.29732422 12.33087891 22.29732422 12.33087891 22.0546875 11.06640625 C21.94511719 10.42832031 21.83554688 9.79023437 21.72265625 9.1328125 C21.06265625 9.1328125 20.40265625 9.1328125 19.72265625 9.1328125 C19.72265625 6.8228125 19.72265625 4.5128125 19.72265625 2.1328125 C11.47265625 2.1328125 3.22265625 2.1328125 -5.27734375 2.1328125 C-5.27734375 22.2628125 -5.27734375 42.3928125 -5.27734375 63.1328125 C-9.27734375 62.1328125 -9.27734375 62.1328125 -10.52734375 60.3203125 C-11.27734375 58.1328125 -11.27734375 58.1328125 -11.27734375 54.1328125 C-11.93734375 54.1328125 -12.59734375 54.1328125 -13.27734375 54.1328125 C-16.70591518 45.70424107 -16.70591518 45.70424107 -16.27734375 41.1328125 C-16.93734375 41.1328125 -17.59734375 41.1328125 -18.27734375 41.1328125 C-18.60734375 38.1628125 -18.93734375 35.1928125 -19.27734375 32.1328125 C-17.27734375 33.1328125 -17.27734375 33.1328125 -16.15234375 35.4453125 C-15.27734375 38.1328125 -15.27734375 38.1328125 -15.27734375 42.1328125 C-14.28734375 42.1328125 -13.29734375 42.1328125 -12.27734375 42.1328125 C-12.27734375 44.4428125 -12.27734375 46.7528125 -12.27734375 49.1328125 C-11.61734375 49.1328125 -10.95734375 49.1328125 -10.27734375 49.1328125 C-9.61734375 53.0928125 -8.95734375 57.0528125 -8.27734375 61.1328125 C-7.61734375 61.1328125 -6.95734375 61.1328125 -6.27734375 61.1328125 C-6.27956436 60.38334854 -6.28178497 59.63388458 -6.28407288 58.86170959 C-6.30407554 51.81298959 -6.31931775 44.76427935 -6.32915592 37.71553898 C-6.33438377 34.0913529 -6.34147962 30.4671902 -6.3527832 26.84301758 C-6.36361559 23.34821275 -6.36962133 19.85343046 -6.37222099 16.35861015 C-6.37497926 14.37041861 -6.38279063 12.38223619 -6.39064026 10.39405823 C-6.39075356 8.59230385 -6.39075356 8.59230385 -6.39086914 6.75415039 C-6.39308975 5.69047745 -6.39531036 4.6268045 -6.39759827 3.53089905 C-6.17527867 -0.90254463 -3.89592583 0.00444994 0 0 Z " fill="#7B7B7B" transform="translate(215.27734375,47.8671875)"/>
<path d="M0 0 C1 2 1 2 0.0625 5.125 C-0.4634375 6.548125 -0.4634375 6.548125 -1 8 C-1.66 8 -2.32 8 -3 8 C-2.979375 8.804375 -2.95875 9.60875 -2.9375 10.4375 C-3 13 -3 13 -4 14 C-4.36760731 16.32817964 -4.70241581 18.6618385 -5 21 C-5.99 21.33 -6.98 21.66 -8 22 C-7.95875 23.19625 -7.9175 24.3925 -7.875 25.625 C-7.86148292 29.42329953 -8.57990247 32.44975618 -10 36 C-10.66 36 -11.32 36 -12 36 C-12 37.65 -12 39.3 -12 41 C-15.74162748 43.43392687 -19.4505172 43.27364761 -23.7578125 43.23046875 C-24.50207489 43.23001053 -25.24633728 43.22955231 -26.01315308 43.2290802 C-27.58153891 43.22606649 -29.14992198 43.21820658 -30.71826172 43.20581055 C-33.1234797 43.18751157 -35.52831329 43.18530129 -37.93359375 43.18554688 C-39.45833667 43.18063287 -40.98307698 43.17480506 -42.5078125 43.16796875 C-43.22865021 43.16685593 -43.94948792 43.1657431 -44.69216919 43.16459656 C-49.76781024 43.11609488 -49.76781024 43.11609488 -52 42 C-52.02888514 38.85418577 -52.04675923 35.70840531 -52.0625 32.5625 C-52.07087891 31.66466797 -52.07925781 30.76683594 -52.08789062 29.84179688 C-52.09111328 28.98779297 -52.09433594 28.13378906 -52.09765625 27.25390625 C-52.10551147 26.06776733 -52.10551147 26.06776733 -52.11352539 24.85766602 C-52 23 -52 23 -51 22 C-48.40640678 21.91148471 -45.83960309 21.88474055 -43.24609375 21.90234375 C-42.47064713 21.9037587 -41.6952005 21.90517365 -40.89625549 21.90663147 C-38.40996506 21.91224655 -35.9237634 21.92480154 -33.4375 21.9375 C-31.75586067 21.94251306 -30.07421994 21.9470763 -28.39257812 21.95117188 C-24.26168434 21.96222087 -20.13085724 21.97949555 -16 22 C-16 22.33 -16 22.66 -16 23 C-27.22 23 -38.44 23 -50 23 C-50 28.94 -50 34.88 -50 41 C-38.78 41 -27.56 41 -16 41 C-15.34 37.37 -14.68 33.74 -14 30 C-13.01 30 -12.02 30 -11 30 C-10.86464844 29.28070313 -10.72929687 28.56140625 -10.58984375 27.8203125 C-10.02591454 25.12390927 -9.34199815 22.51640823 -8.5625 19.875 C-8.31628906 19.02679688 -8.07007813 18.17859375 -7.81640625 17.3046875 C-7 15 -7 15 -5 12 C-4.690625 11.071875 -4.38125 10.14375 -4.0625 9.1875 C-2.97937221 5.93811662 -1.58719925 3.03010766 0 0 Z " fill="#5F5F5F" transform="translate(151,72)"/>
<path d="M0 0 C6.93 0 13.86 0 21 0 C21 21.78 21 43.56 21 66 C20.67 66 20.34 66 20 66 C20 44.55 20 23.1 20 1 C18.68 1.33 17.36 1.66 16 2 C11.05 2 6.1 2 1 2 C1 23.45 1 44.9 1 67 C0.34 67 -0.32 67 -1 67 C-1.02312635 58.4119428 -1.04091658 49.82389851 -1.05181217 41.23581791 C-1.05704036 37.248428 -1.06413684 33.26105933 -1.07543945 29.27368164 C-1.08627061 25.42874886 -1.09227732 21.58383655 -1.09487724 17.73888969 C-1.09673108 16.26881017 -1.10035091 14.79873182 -1.10573006 13.32866096 C-1.11294355 11.27645533 -1.11399081 9.22433533 -1.11352539 7.17211914 C-1.115746 6.00185684 -1.11796661 4.83159454 -1.12025452 3.62586975 C-1 1 -1 1 0 0 Z " fill="#555555" transform="translate(58,64)"/>
<path d="M0 0 C0.33 0 0.66 0 1 0 C1 21.12 1 42.24 1 64 C36.64 63.505 36.64 63.505 73 63 C72.67 63.99 72.34 64.98 72 66 C48.24 66 24.48 66 0 66 C0 44.22 0 22.44 0 0 Z " fill="#B7B7B7" transform="translate(79,65)"/>
<path d="M0 0 C2.34466343 2.27361302 2.96969666 3.78087314 3.05078125 7.04296875 C2.875 9.1875 2.875 9.1875 2 13 C-1.6441774 15.4294516 -3.71241272 15.16179575 -8 15 C-8 14.34 -8 13.68 -8 13 C-8.99 12.67 -9.98 12.34 -11 12 C-12.38461538 5.23076923 -12.38461538 5.23076923 -11 2 C-7.24359091 -0.50427273 -4.41690306 -0.87236131 0 0 Z " fill="#0F0F0F" transform="translate(292,175)"/>
<path d="M0 0 C1.32 0 2.64 0 4 0 C6.66590937 4.55426184 7.31563182 7.73946963 7 13 C7.66 13 8.32 13 9 13 C10.36736512 16.00820327 11.0591255 18.44344128 11.5 21.75 C11.665 22.8225 11.83 23.895 12 25 C12.66 25.33 13.32 25.66 14 26 C14.042721 27.66611905 14.04063832 29.33382885 14 31 C12.37799485 32.62200515 10.57976969 32.1299075 8.34375 32.1328125 C6.93416016 32.13474609 6.93416016 32.13474609 5.49609375 32.13671875 C4.50738281 32.13285156 3.51867187 32.12898438 2.5 32.125 C1.51128906 32.12886719 0.52257812 32.13273437 -0.49609375 32.13671875 C-1.43582031 32.13542969 -2.37554687 32.13414063 -3.34375 32.1328125 C-4.21193359 32.13168457 -5.08011719 32.13055664 -5.97460938 32.12939453 C-8 32 -8 32 -9 31 C-9.04092937 28.66702567 -9.04241723 26.33294775 -9 24 C-8.34 24 -7.68 24 -7 24 C-6.896875 23.34 -6.79375 22.68 -6.6875 22 C-6.1256309 19.54820757 -5.44517561 17.55530636 -4.5 15.25 C-3.00750031 11.45746455 -2.54164658 7.93651923 -2.30859375 3.8828125 C-2 2 -2 2 0 0 Z M1 2 C-0.98363641 4.97545461 -1.38563736 6.39095161 -1.9375 9.8125 C-2.52294656 13.04884858 -3.08751027 15.16828898 -4.625 18.125 C-6.48760178 22.01953099 -6.29067978 24.71247331 -6 29 C-4.81147145 30.41774838 -4.81147145 30.41774838 -1.40234375 30.09765625 C0.08596867 30.0909822 1.57426432 30.07902183 3.0625 30.0625 C3.82111328 30.05798828 4.57972656 30.05347656 5.36132812 30.04882812 C7.24091871 30.0370068 9.12046899 30.01907078 11 30 C10.47891036 25.25097849 9.55392456 21.43585328 7.5 17.125 C7.0565625 16.17882812 6.613125 15.23265625 6.15625 14.2578125 C5.19151101 12.08915554 5.19151101 12.08915554 4 11 C3.76807135 9.48530552 3.58784762 7.96245438 3.4375 6.4375 C3.35371094 5.61121094 3.26992187 4.78492187 3.18359375 3.93359375 C3.12300781 3.29550781 3.06242188 2.65742187 3 2 C2.34 2 1.68 2 1 2 Z " fill="#CCCCCC" transform="translate(170,69)"/>
<path d="M0 0 C8.58 0 17.16 0 26 0 C26 21.45 26 42.9 26 65 C25.34 65 24.68 65 24 65 C24 44.21 24 23.42 24 2 C16.08 2 8.16 2 0 2 C0 1.34 0 0.68 0 0 Z " fill="#2A2A2A" transform="translate(10,65)"/>
<path d="M0 0 C0.66 0 1.32 0 2 0 C2.27714844 0.84304687 2.55429688 1.68609375 2.83984375 2.5546875 C3.20207031 3.65039062 3.56429687 4.74609375 3.9375 5.875 C4.29714844 6.96554688 4.65679687 8.05609375 5.02734375 9.1796875 C5.89914074 11.90758682 5.89914074 11.90758682 7 14 C7 15.98 7 17.96 7 20 C2.71 20 -1.58 20 -6 20 C-5.52800233 14.524827 -4.6541196 10.88358006 -2 6 C-1.30028027 4.01132287 -0.62335603 2.01391949 0 0 Z " fill="#0E0E0E" transform="translate(126,218)"/>
<path d="M0 0 C6.93 0 13.86 0 21 0 C21 16.5 21 33 21 50 C25.62 50 30.24 50 35 50 C35 33.83 35 17.66 35 1 C35.33 1 35.66 1 36 1 C36 17.5 36 34 36 51 C30.72 51 25.44 51 20 51 C20 34.5 20 18 20 1 C14.06 1 8.12 1 2 1 C2.66 3.64 3.32 6.28 4 9 C2 7.3125 2 7.3125 0 5 C0 3.35 0 1.7 0 0 Z " fill="#ADADAD" transform="translate(140,211)"/>
<path d="M0 0 C1.32 0.33 2.64 0.66 4 1 C3.83890747 1.56576248 3.67781494 2.13152496 3.51184082 2.71443176 C2.98525998 5.06581994 2.8488386 7.16205366 2.81054688 9.5690918 C2.78547058 10.91519783 2.78547058 10.91519783 2.7598877 12.28849792 C2.74631226 13.2490358 2.73273682 14.20957367 2.71875 15.19921875 C2.70034058 16.19000931 2.68193115 17.18079987 2.66296387 18.20161438 C2.58427772 22.44037091 2.51630459 26.67928214 2.44775391 30.91821289 C2.39618742 34.01196541 2.33889858 37.10557457 2.28125 40.19921875 C2.26767456 41.16582932 2.25409912 42.13243988 2.2401123 43.12834167 C2.21503601 44.46026299 2.21503601 44.46026299 2.18945312 45.8190918 C2.17066101 46.9967939 2.17066101 46.9967939 2.15148926 48.19828796 C2 50 2 50 1 51 C-1.8116338 51.08861992 -4.59858255 51.11522355 -7.41015625 51.09765625 C-8.25219101 51.0962413 -9.09422577 51.09482635 -9.96177673 51.09336853 C-12.66205335 51.08775263 -15.36224828 51.07519748 -18.0625 51.0625 C-19.88867068 51.05748705 -21.71484266 51.05292379 -23.54101562 51.04882812 C-28.02737542 51.03777804 -32.51367384 51.02050279 -37 51 C-36.67 50.34 -36.34 49.68 -36 49 C-24.12 49.33 -12.24 49.66 0 50 C0 33.5 0 17 0 0 Z " fill="#868686" transform="translate(229,80)"/>
<path d="M0 0 C32.34 0 64.68 0 98 0 C98 2.31 98 4.62 98 7 C98.66 7 99.32 7 100 7 C100.33 6.01 100.66 5.02 101 4 C101.495 4.99 101.495 4.99 102 6 C100.6875 8 100.6875 8 99 10 C98.01 10 97.02 10 96 10 C96 7.03 96 4.06 96 1 C64.65 1 33.3 1 1 1 C1 3.97 1 6.94 1 10 C0.34 10 -0.32 10 -1 10 C-1.66 8.02 -2.32 6.04 -3 4 C-2.01 4.495 -2.01 4.495 -1 5 C-0.67 3.35 -0.34 1.7 0 0 Z " fill="#B0B0B0" transform="translate(140,200)"/>
<path d="M0 0 C0 16.83 0 33.66 0 51 C-0.66 51 -1.32 51 -2 51 C-2.33 36.81 -2.66 22.62 -3 8 C-4.9451 10.91765 -5.45276317 12.62537285 -6 16 C-6.66 16 -7.32 16 -8 16 C-8.12375 16.639375 -8.2475 17.27875 -8.375 17.9375 C-8.58125 18.618125 -8.7875 19.29875 -9 20 C-9.66 20.33 -10.32 20.66 -11 21 C-9.62770684 16.54004724 -7.87498768 12.35923221 -5.9453125 8.12109375 C-5.19578645 6.43930597 -4.52150584 4.72401556 -3.875 3 C-2.98277883 0.96063733 -2.39161597 0 0 0 Z " fill="#575757" transform="translate(275,79)"/>
<path d="M0 0 C0.66 0 1.32 0 2 0 C2 13.2 2 26.4 2 40 C10.91 40 19.82 40 29 40 C29 40.33 29 40.66 29 41 C25.03069011 41.02465881 21.06140966 41.04284023 17.09204102 41.05493164 C15.74079614 41.05997057 14.38955674 41.06680177 13.03833008 41.07543945 C11.09979566 41.08752419 9.161222 41.09269828 7.22265625 41.09765625 C5.47094116 41.10551147 5.47094116 41.10551147 3.68383789 41.11352539 C1 41 1 41 0 40 C-0.15873955 37.78312006 -0.25133837 35.56144702 -0.31640625 33.33984375 C-0.33718735 32.67537735 -0.35796844 32.01091095 -0.37937927 31.3263092 C-0.44493658 29.19681457 -0.50378785 27.06719332 -0.5625 24.9375 C-0.60567939 23.49673153 -0.64929349 22.05597601 -0.69335938 20.61523438 C-0.80062393 17.0769596 -0.90187371 13.53854131 -1 10 C-1.66 10 -2.32 10 -3 10 C-3 10.99 -3 11.98 -3 13 C-3.66 13 -4.32 13 -5 13 C-4.55005243 11.20620902 -4.08975857 9.41501072 -3.625 7.625 C-3.36976562 6.62726563 -3.11453125 5.62953125 -2.8515625 4.6015625 C-2 2 -2 2 0 0 Z " fill="#515151" transform="translate(81,222)"/>
<path d="M0 0 C0.79792969 0.00193359 1.59585938 0.00386719 2.41796875 0.00585938 C3.24683594 0.01810547 4.07570313 0.03035156 4.9296875 0.04296875 C5.76628906 0.04361328 6.60289063 0.04425781 7.46484375 0.04492188 C13.66435587 0.09013712 13.66435587 0.09013712 14.8046875 1.23046875 C14.92678674 2.64164577 14.98239622 4.05867334 15.01000977 5.47485352 C15.02995499 6.37571182 15.04990021 7.27657013 15.07044983 8.20472717 C15.08716232 9.18388596 15.10387482 10.16304474 15.12109375 11.171875 C15.14187485 12.16928207 15.16265594 13.16668915 15.18406677 14.19432068 C15.24967387 17.39379718 15.30849884 20.59335857 15.3671875 23.79296875 C15.41036212 25.95638914 15.45397605 28.11980081 15.49804688 30.28320312 C15.60536659 35.59887039 15.70660219 40.91462339 15.8046875 46.23046875 C17.1246875 42.27046875 18.4446875 38.31046875 19.8046875 34.23046875 C20.1346875 34.23046875 20.4646875 34.23046875 20.8046875 34.23046875 C20.45721005 43.17801302 20.45721005 43.17801302 17.8671875 47.35546875 C15.8046875 49.23046875 15.8046875 49.23046875 13.8046875 49.23046875 C13.8046875 33.72046875 13.8046875 18.21046875 13.8046875 2.23046875 C7.8646875 2.23046875 1.9246875 2.23046875 -4.1953125 2.23046875 C-4.8553125 4.21046875 -5.5153125 6.19046875 -6.1953125 8.23046875 C-7.1853125 8.72546875 -7.1853125 8.72546875 -8.1953125 9.23046875 C-7.8828125 5.85546875 -7.8828125 5.85546875 -7.1953125 2.23046875 C-4.11562187 0.17734167 -3.47562545 -0.01950879 0 0 Z " fill="#8A8A8A" transform="translate(84.1953125,198.76953125)"/>
<path d="M0 0 C0.66 0 1.32 0 2 0 C2 5.28 2 10.56 2 16 C10.58 16 19.16 16 28 16 C28 14.02 28 12.04 28 10 C30.31 10.33 32.62 10.66 35 11 C35 11.66 35 12.32 35 13 C35.66 13 36.32 13 37 13 C37 13.66 37 14.32 37 15 C38.65 15 40.3 15 42 15 C42.495 15.99 42.495 15.99 43 17 C40.69 16.67 38.38 16.34 36 16 C36 15.34 36 14.68 36 14 C35.01 14 34.02 14 33 14 C33 13.34 33 12.68 33 12 C32.01 12 31.02 12 30 12 C30.020625 12.804375 30.04125 13.60875 30.0625 14.4375 C30 17 30 17 29 18 C26.9394469 18.09993532 24.8754741 18.13080906 22.8125 18.1328125 C21.55695313 18.13410156 20.30140625 18.13539063 19.0078125 18.13671875 C18.35071289 18.13462402 17.69361328 18.1325293 17.01660156 18.13037109 C15.00838665 18.12502234 13.00039541 18.13031691 10.9921875 18.13671875 C9.73664063 18.13542969 8.48109375 18.13414062 7.1875 18.1328125 C6.02605469 18.13168457 4.86460937 18.13055664 3.66796875 18.12939453 C1 18 1 18 0 17 C-0.07325168 14.13732433 -0.09238205 11.299281 -0.0625 8.4375 C-0.05798828 7.63119141 -0.05347656 6.82488281 -0.04882812 5.99414062 C-0.03700518 3.99606244 -0.01906914 1.99802217 0 0 Z " fill="#B0B0B0" transform="translate(207,234)"/>
<path d="M0 0 C3.95831809 -0.02892857 7.91660917 -0.04677427 11.875 -0.0625 C13.56689453 -0.07506836 13.56689453 -0.07506836 15.29296875 -0.08789062 C16.36933594 -0.09111328 17.44570312 -0.09433594 18.5546875 -0.09765625 C19.54968262 -0.10289307 20.54467773 -0.10812988 21.56982422 -0.11352539 C24 0 24 0 26 1 C26 1.99 26 2.98 26 4 C26.66 4 27.32 4 28 4 C28.12375 5.03125 28.2475 6.0625 28.375 7.125 C28.94240858 10.64293321 29.66518398 13.70221925 31 17 C31.66 17.33 32.32 17.66 33 18 C36.18569466 22.99009203 37.76985221 28.2593103 39 34 C38.01 34 37.02 34 36 34 C33.87104533 30.45174222 33.50832811 27.06662487 33 23 C32.72359986 20.7124024 32.72359986 20.7124024 32 19 C31.01 18.67 30.02 18.34 29 18 C28.26953125 15.93359375 28.26953125 15.93359375 27.8125 13.4375 C27.57466797 12.19806641 27.57466797 12.19806641 27.33203125 10.93359375 C27.22246094 10.29550781 27.11289063 9.65742187 27 9 C26.34 9 25.68 9 25 9 C25 6.69 25 4.38 25 2 C16.75 2 8.5 2 0 2 C0 1.34 0 0.68 0 0 Z " fill="#7D7D7D" transform="translate(210,48)"/>
<path d="M0 0 C8.25 0 16.5 0 25 0 C24.67 0.66 24.34 1.32 24 2 C12.615 1.505 12.615 1.505 1 1 C1.33 22.12 1.66 43.24 2 65 C0.35 65 -1.3 65 -3 65 C-3.33 63.35 -3.66 61.7 -4 60 C-2.68 60.33 -1.36 60.66 0 61 C0 40.87 0 20.74 0 0 Z " fill="#D6D6D6" transform="translate(210,50)"/>
<path d="M0 0 C1.5631897 0.00785522 1.5631897 0.00785522 3.15795898 0.01586914 C4.28266602 0.0190918 5.40737305 0.02231445 6.56616211 0.02563477 C7.75016602 0.03401367 8.93416992 0.04239258 10.15405273 0.05102539 C11.34192383 0.05553711 12.52979492 0.06004883 13.75366211 0.06469727 C16.69967499 0.07652864 19.64558954 0.09301252 22.59155273 0.11352539 C22.59155273 0.44352539 22.59155273 0.77352539 22.59155273 1.11352539 C14.67155273 1.44352539 6.75155273 1.77352539 -1.40844727 2.11352539 C-1.73844727 21.91352539 -2.06844727 41.71352539 -2.40844727 62.11352539 C-3.06844727 62.11352539 -3.72844727 62.11352539 -4.40844727 62.11352539 C-6.01199828 58.60575755 -6.62881591 55.9699766 -6.40844727 52.11352539 C-5.74844727 53.10352539 -5.08844727 54.09352539 -4.40844727 55.11352539 C-4.39298607 54.10208214 -4.39298607 54.10208214 -4.37721252 53.07020569 C-4.26938958 46.07908957 -4.15477284 39.08810872 -4.03613281 32.09716797 C-3.99270602 29.48489195 -3.95103688 26.87258611 -3.91113281 24.26025391 C-3.8536172 20.5146382 -3.78986963 16.7691737 -3.72485352 13.02368164 C-3.70814102 11.84765884 -3.69142853 10.67163605 -3.67420959 9.4599762 C-3.65426437 8.37893112 -3.63431915 7.29788605 -3.61376953 6.18408203 C-3.59822525 5.22699844 -3.58268097 4.26991486 -3.56666565 3.28382874 C-3.34234074 0.20673302 -3.09650822 0.14595807 0 0 Z " fill="#2A2A2A" transform="translate(211.408447265625,46.886474609375)"/>
<path d="M0 0 C0.33 0 0.66 0 1 0 C1 6.27 1 12.54 1 19 C13.21 19 25.42 19 38 19 C37.505 20.485 37.505 20.485 37 22 C24.79 22 12.58 22 0 22 C0 14.74 0 7.48 0 0 Z " fill="#C3C3C3" transform="translate(98,95)"/>
<path d="M0 0 C1.32 0.33 2.64 0.66 4 1 C4 18.16 4 35.32 4 53 C9.61 53 15.22 53 21 53 C21 53.33 21 53.66 21 54 C15.06 54 9.12 54 3 54 C3 37.17 3 20.34 3 3 C-1.23578792 5.10390941 -1.23578792 5.10390941 -3 9 C-3.1875 5.625 -3.1875 5.625 -3 2 C-2.01 1.34 -1.02 0.68 0 0 Z " fill="#E9E9E9" transform="translate(273,76)"/>
<path d="M0 0 C1.55913346 3.11826692 0.66585225 5.67073874 0 9 C-0.99 9.495 -0.99 9.495 -2 10 C-4.5330007 15.07555989 -6.40438528 20.34166012 -7 26 C-7.66 26 -8.32 26 -9 26 C-9 27.32 -9 28.64 -9 30 C-9.99 30 -10.98 30 -12 30 C-12 31.32 -12 32.64 -12 34 C-13.66611905 34.042721 -15.33382885 34.04063832 -17 34 C-18 33 -18 33 -18.0625 29.9375 C-18.041875 28.968125 -18.02125 27.99875 -18 27 C-16.515 27.99 -16.515 27.99 -15 29 C-15 29.99 -15 30.98 -15 32 C-14.34 32 -13.68 32 -13 32 C-12.67 30.35 -12.34 28.7 -12 27 C-11.34 27 -10.68 27 -10 27 C-9.87625 26.443125 -9.7525 25.88625 -9.625 25.3125 C-9 23 -9 23 -8 20.6875 C-6.80684325 17.48089123 -6.39867742 14.38875807 -6 11 C-5.34 11 -4.68 11 -4 11 C-3.8453125 9.948125 -3.8453125 9.948125 -3.6875 8.875 C-2.90640997 5.60862353 -1.57941257 2.9528148 0 0 Z " fill="#8C8C8C" transform="translate(267,55)"/>
<path d="M0 0 C8.91 0 17.82 0 27 0 C26.67 1.32 26.34 2.64 26 4 C25.67 3.67 25.34 3.34 25 3 C23.22130274 2.84235595 21.43681524 2.74899323 19.65234375 2.68359375 C18.57275391 2.64169922 17.49316406 2.59980469 16.38085938 2.55664062 C14.67639648 2.49766602 14.67639648 2.49766602 12.9375 2.4375 C11.79732422 2.39431641 10.65714844 2.35113281 9.48242188 2.30664062 C6.65507805 2.20017161 3.82764262 2.09815793 1 2 C1.04125 2.88945313 1.0825 3.77890625 1.125 4.6953125 C0.99899361 8.02660632 0.43723316 9.9107066 -1 12.875 C-1.37125 13.65617187 -1.7425 14.43734375 -2.125 15.2421875 C-2.558125 16.11230469 -2.558125 16.11230469 -3 17 C-5.20527399 11.39666231 -1.76394817 5.34529749 0 0 Z " fill="#494949" transform="translate(159,47)"/>
<path d="M0 0 C1.32 0 2.64 0 4 0 C3.83923477 0.58247498 3.67846954 1.16494995 3.51283264 1.76507568 C2.71811623 5.22844927 2.76069922 8.72783374 2.68359375 12.265625 C2.66281265 13.05902283 2.64203156 13.85242065 2.62062073 14.66986084 C2.55540027 17.19648844 2.49636856 19.72321721 2.4375 22.25 C2.3942886 23.96615616 2.35067347 25.68230222 2.30664062 27.3984375 C2.19974717 31.59885546 2.09840271 35.79937489 2 40 C1.34 40 0.68 40 0 40 C0 26.8 0 13.6 0 0 Z " fill="#7A7A7A" transform="translate(47,222)"/>
<path d="M0 0 C1.09445938 0.00212242 1.09445938 0.00212242 2.21102905 0.00428772 C4.54437335 0.00989094 6.87762214 0.0224439 9.2109375 0.03515625 C10.79166528 0.04017084 12.37239457 0.04473382 13.953125 0.04882812 C17.83076604 0.05986141 21.70833557 0.07712814 25.5859375 0.09765625 C25.5859375 1.08765625 25.5859375 2.07765625 25.5859375 3.09765625 C26.2459375 3.09765625 26.9059375 3.09765625 27.5859375 3.09765625 C27.5859375 5.73765625 27.5859375 8.37765625 27.5859375 11.09765625 C28.5759375 11.42765625 29.5659375 11.75765625 30.5859375 12.09765625 C31.0809375 14.57265625 31.0809375 14.57265625 31.5859375 17.09765625 C28.5859375 16.09765625 28.5859375 16.09765625 26.5859375 13.09765625 C25.9259375 9.13765625 25.2659375 5.17765625 24.5859375 1.09765625 C9.2409375 1.59265625 9.2409375 1.59265625 -6.4140625 2.09765625 C-7.4040625 5.06765625 -8.3940625 8.03765625 -9.4140625 11.09765625 C-10.0740625 12.08765625 -10.7340625 13.07765625 -11.4140625 14.09765625 C-11.2696875 13.43765625 -11.1253125 12.77765625 -10.9765625 12.09765625 C-10.51963844 9.66072795 -10.22446934 7.30901699 -9.9765625 4.84765625 C-9.7909375 3.61015625 -9.6053125 2.37265625 -9.4140625 1.09765625 C-6.40193221 -0.4084089 -3.30123628 -0.02394706 0 0 Z " fill="#A2A2A2" transform="translate(163.4140625,112.90234375)"/>
<path d="M0 0 C0.33 0 0.66 0 1 0 C1 15.18 1 30.36 1 46 C8.59 46.33 16.18 46.66 24 47 C24 47.33 24 47.66 24 48 C20.37501666 48.02893932 16.75006287 48.04677792 13.125 48.0625 C11.57619141 48.07506836 11.57619141 48.07506836 9.99609375 48.08789062 C9.00996094 48.09111328 8.02382813 48.09433594 7.0078125 48.09765625 C6.09660645 48.10289307 5.18540039 48.10812988 4.24658203 48.11352539 C2 48 2 48 0 47 C-0.33 34.13 -0.66 21.26 -1 8 C-1.99 8.495 -1.99 8.495 -3 9 C-2.30058404 5.85262818 -1.23921302 2.97411124 0 0 Z " fill="#141414" transform="translate(272,84)"/>
<path d="M0 0 C1 2 1 2 0.0625 5.125 C-0.288125 6.07375 -0.63875 7.0225 -1 8 C-1.66 8 -2.32 8 -3 8 C-2.979375 8.804375 -2.95875 9.60875 -2.9375 10.4375 C-3 13 -3 13 -4 14 C-4.36760731 16.32817964 -4.70241581 18.6618385 -5 21 C-5.99 21.33 -6.98 21.66 -8 22 C-7.938125 23.794375 -7.938125 23.794375 -7.875 25.625 C-7.86148292 29.42329953 -8.57990247 32.44975618 -10 36 C-10.66 36 -11.32 36 -12 36 C-12 37.65 -12 39.3 -12 41 C-13.485 41.495 -13.485 41.495 -15 42 C-13.98543094 36.84360198 -12.73087405 32.00113776 -10.7890625 27.1171875 C-9.57843706 23.86887567 -8.67372744 20.53765185 -7.74609375 17.19921875 C-7 15 -7 15 -5 12 C-4.690625 11.071875 -4.38125 10.14375 -4.0625 9.1875 C-2.97937221 5.93811662 -1.58719925 3.03010766 0 0 Z " fill="#6D6D6D" transform="translate(151,72)"/>
<path d="M0 0 C2.5 0.25 2.5 0.25 4.5 2.25 C4.6875 5.3125 4.6875 5.3125 4.5 8.25 C3.5 9.25 3.5 9.25 0 9.375 C-3.5 9.25 -3.5 9.25 -4.5 8.25 C-4.6875 5.3125 -4.6875 5.3125 -4.5 2.25 C-2.5 0.25 -2.5 0.25 0 0 Z " fill="#191919" transform="translate(302.5,205.75)"/>
<path d="M0 0 C3.91610484 -0.17426756 7.83121497 -0.28084155 11.75 -0.375 C12.86117187 -0.42527344 13.97234375 -0.47554687 15.1171875 -0.52734375 C18.18627095 -0.58280911 20.9819219 -0.56601484 24 0 C26.68359375 2.828125 26.68359375 2.828125 28 6 C28.433125 7.03125 28.86625 8.0625 29.3125 9.125 C29.99104137 11.96253664 30.03158701 13.31787377 29 16 C26.23408664 13.23408664 26.5262589 10.81537701 26 7 C25.34 5.68 24.68 4.36 24 3 C16.08 2.67 8.16 2.34 0 2 C0 1.34 0 0.68 0 0 Z " fill="#BABABA" transform="translate(160,49)"/>
<path d="M0 0 C0.33 0 0.66 0 1 0 C1 14.85 1 29.7 1 45 C-0.32 43.68 -1.64 42.36 -3 41 C-3 39.68 -3 38.36 -3 37 C-3.66 37 -4.32 37 -5 37 C-4.67 35.68 -4.34 34.36 -4 33 C-2 36 -2 36 -2 39 C-1.34 39 -0.68 39 0 39 C0 26.13 0 13.26 0 0 Z " fill="#282828" transform="translate(158,212)"/>
<path d="M0 0 C-2.97 0 -5.94 0 -9 0 C-9 -0.66 -9 -1.32 -9 -2 C-12.14711178 -1.94735905 -15.29163595 -1.85212403 -18.4375 -1.75 C-19.75524414 -1.72873047 -19.75524414 -1.72873047 -21.09960938 -1.70703125 C-26.8555899 -1.49463344 -31.09415526 -0.43368363 -36.20727539 2.24902344 C-36.79887451 2.4968457 -37.39047363 2.74466797 -38 3 C-38.66 2.67 -39.32 2.34 -40 2 C-35.50821961 -1.52925602 -32.30634106 -3.22032356 -26.53515625 -3.44921875 C-25.48779297 -3.49240234 -24.44042969 -3.53558594 -23.36132812 -3.58007812 C-22.27271484 -3.61552734 -21.18410156 -3.65097656 -20.0625 -3.6875 C-18.43538086 -3.75807617 -18.43538086 -3.75807617 -16.77539062 -3.83007812 C-4.29788859 -4.29788859 -4.29788859 -4.29788859 0 0 Z " fill="#767676" transform="translate(283,201)"/>
<path d="M0 0 C1.29349365 0.00523682 2.5869873 0.01047363 3.91967773 0.01586914 C4.9496714 0.01799156 4.9496714 0.01799156 6.00047302 0.02015686 C8.20144949 0.0257706 10.40232557 0.03832532 12.60327148 0.05102539 C14.09220231 0.05603863 15.58113473 0.06060184 17.07006836 0.06469727 C20.72700223 0.07574446 24.38387707 0.09301826 28.04077148 0.11352539 C29.72687996 4.01016191 30.23911285 6.84918604 30.04077148 11.11352539 C28.54077148 10.05102539 28.54077148 10.05102539 27.04077148 8.11352539 C27.04077148 5.80352539 27.04077148 3.49352539 27.04077148 1.11352539 C17.47077148 1.11352539 7.90077148 1.11352539 -1.95922852 1.11352539 C-2.28922852 2.43352539 -2.61922852 3.75352539 -2.95922852 5.11352539 C-3.61922852 5.77352539 -4.27922852 6.43352539 -4.95922852 7.11352539 C-3.92217729 0.15046716 -3.92217729 0.15046716 0 0 Z " fill="#404040" transform="translate(159.959228515625,113.886474609375)"/>
<path d="M0 0 C1.32 0.33 2.64 0.66 4 1 C3.83923477 1.56543518 3.67846954 2.13087036 3.51283264 2.71343994 C2.98493238 5.0671818 2.84205782 7.17534531 2.79467773 9.58496094 C2.77473251 10.48559265 2.75478729 11.38622437 2.73423767 12.31414795 C2.71752518 13.27782288 2.70081268 14.2414978 2.68359375 15.234375 C2.66281265 16.22753723 2.64203156 17.22069946 2.62062073 18.24395752 C2.55530251 21.41256882 2.49632261 24.58126211 2.4375 27.75 C2.39429793 29.89974802 2.35068309 32.04948778 2.30664062 34.19921875 C2.19963929 39.46605949 2.09784009 44.73298155 2 50 C1.67 50 1.34 50 1 50 C0.67 33.5 0.34 17 0 0 Z " fill="#565656" transform="translate(229,80)"/>
<path d="M0 0 C1.134375 0.020625 2.26875 0.04125 3.4375 0.0625 C3.4375 0.7225 3.4375 1.3825 3.4375 2.0625 C5.0875 2.0625 6.7375 2.0625 8.4375 2.0625 C8.7675 2.7225 9.0975 3.3825 9.4375 4.0625 C0.86607143 5.34821429 0.86607143 5.34821429 -2.5625 4.0625 C-2.8925 5.3825 -3.2225 6.7025 -3.5625 8.0625 C-3.8925 7.4025 -4.2225 6.7425 -4.5625 6.0625 C-7.2025 6.0625 -9.8425 6.0625 -12.5625 6.0625 C-12.5625 5.7325 -12.5625 5.4025 -12.5625 5.0625 C-10.2525 5.0625 -7.9425 5.0625 -5.5625 5.0625 C-5.418125 4.423125 -5.27375 3.78375 -5.125 3.125 C-4.16977878 -0.37747781 -3.91378882 0.06866296 0 0 Z " fill="#6C6C6C" transform="translate(298.5625,194.9375)"/>
<path d="M0 0 C1.77706209 2.66559313 2.87548273 5.0280615 4 8 C3.01 7.67 2.02 7.34 1 7 C1 20.86 1 34.72 1 49 C0.34 48.67 -0.32 48.34 -1 48 C-0.67 32.16 -0.34 16.32 0 0 Z " fill="#161616" transform="translate(231,82)"/>
<path d="M0 0 C0.66 0 1.32 0 2 0 C2 13.53 2 27.06 2 41 C2.66 41 3.32 41 4 41 C3.34 42.98 2.68 44.96 2 47 C1.67 47 1.34 47 1 47 C0.67 31.49 0.34 15.98 0 0 Z " fill="#313131" transform="translate(98,199)"/>
<path d="M0 0 C2.67990269 2.3141221 3.598724 4.24352307 4.5625 7.625 C5.20135682 9.98406223 5.20135682 9.98406223 6 12 C6.66 12.33 7.32 12.66 8 13 C11.18569466 17.99009203 12.76985221 23.2593103 14 29 C13.01 29 12.02 29 11 29 C8.87104533 25.45174222 8.50832811 22.06662487 8 18 C7.72359986 15.7124024 7.72359986 15.7124024 7 14 C6.01 13.67 5.02 13.34 4 13 C3.26953125 10.93359375 3.26953125 10.93359375 2.8125 8.4375 C2.65394531 7.61121094 2.49539062 6.78492188 2.33203125 5.93359375 C2.16767578 4.97646484 2.16767578 4.97646484 2 4 C1.34 4 0.68 4 0 4 C0 2.68 0 1.36 0 0 Z " fill="#B1B1B1" transform="translate(235,53)"/>
<path d="M0 0 C1.57043101 0.01330874 3.14079971 0.03717648 4.7109375 0.0703125 C5.51273438 0.07933594 6.31453125 0.08835938 7.140625 0.09765625 C9.12252273 0.12125027 11.10426731 0.15712185 13.0859375 0.1953125 C13.4159375 0.8553125 13.7459375 1.5153125 14.0859375 2.1953125 C8.1459375 2.1953125 2.2059375 2.1953125 -3.9140625 2.1953125 C-3.9140625 3.5153125 -3.9140625 4.8353125 -3.9140625 6.1953125 C-4.5740625 6.1953125 -5.2340625 6.1953125 -5.9140625 6.1953125 C-6.2440625 7.5153125 -6.5740625 8.8353125 -6.9140625 10.1953125 C-7.9140625 8.1953125 -7.9140625 8.1953125 -7.1015625 5.1953125 C-5.3510347 0.77292649 -4.85965017 0.24249751 0 0 Z " fill="#999999" transform="translate(121.9140625,198.8046875)"/>
<path d="M0 0 C0.33 0 0.66 0 1 0 C1.24059853 4.21047434 0.683989 5.7900275 -1 10 C3.95 10 8.9 10 14 10 C14.33 9.34 14.66 8.68 15 8 C15 9.32 15 10.64 15 12 C12.35409986 12.02684679 9.70846904 12.04676357 7.0625 12.0625 C5.93038086 12.07506836 5.93038086 12.07506836 4.77539062 12.08789062 C2.85005687 12.09652441 0.92464419 12.05224333 -1 12 C-2.87643761 10.12356239 -2.17984987 7.50194299 -2.23046875 5.0078125 C-2 3 -2 3 0 0 Z " fill="#454545" transform="translate(166,87)"/>
<path d="M0 0 C0.93423645 3.01031744 1.04449911 3.86650268 0 7 C2.97 7 5.94 7 9 7 C9 5.02 9 3.04 9 1 C11 3 11 3 11 9 C6.71 9 2.42 9 -2 9 C-1.125 1.125 -1.125 1.125 0 0 Z " fill="#373737" transform="translate(122,229)"/>
<path d="M0 0 C1.65 0 3.3 0 5 0 C5 1.65 5 3.3 5 5 C5.66 5 6.32 5 7 5 C7.33 7.97 7.66 10.94 8 14 C5.49484216 11.49484216 4.94900914 9.38931835 4 6 C4 4.68 4 3.36 4 2 C1.7671887 2.82546793 1.7671887 2.82546793 1.21875 5.25 C0.9815625 6.1575 0.744375 7.065 0.5 8 C-0.21875 10.75 -0.21875 10.75 -1 13 C-1.99 13.495 -1.99 13.495 -3 14 C-2.67 11.36 -2.34 8.72 -2 6 C-1.34 6 -0.68 6 0 6 C0 4.02 0 2.04 0 0 Z " fill="#AEAEAE" transform="translate(124,216)"/>
<path d="M0 0 C0.66 0 1.32 0 2 0 C3.625 2.5 3.625 2.5 5 5 C3.68 5 2.36 5 1 5 C0.67 6.32 0.34 7.64 0 9 C-8.58 9 -17.16 9 -26 9 C-26 8.67 -26 8.34 -26 8 C-13.625 7.505 -13.625 7.505 -1 7 C-0.67 4.69 -0.34 2.38 0 0 Z " fill="#141414" transform="translate(236,227)"/>
<path d="M0 0 C0.36995516 4.56278027 0.36995516 4.56278027 -1.375 6.625 C-2.179375 7.305625 -2.179375 7.305625 -3 8 C-4.9451 10.91765 -5.45276317 12.62537285 -6 16 C-6.66 16 -7.32 16 -8 16 C-8.12375 16.639375 -8.2475 17.27875 -8.375 17.9375 C-8.58125 18.618125 -8.7875 19.29875 -9 20 C-9.66 20.33 -10.32 20.66 -11 21 C-9.62770684 16.54004724 -7.87498768 12.35923221 -5.9453125 8.12109375 C-5.19578645 6.43930597 -4.52150584 4.72401556 -3.875 3 C-2.98277883 0.96063733 -2.39161597 0 0 0 Z " fill="#5F5F5F" transform="translate(275,79)"/>
<path d="M0 0 C1.65 0 3.3 0 5 0 C5.33 1.32 5.66 2.64 6 4 C7.32 4.33 8.64 4.66 10 5 C9.01 5 8.02 5 7 5 C7 9.95 7 14.9 7 20 C6.67 20 6.34 20 6 20 C6 15.05 6 10.1 6 5 C5.01 5 4.02 5 3 5 C3 4.34 3 3.68 3 3 C1.68 2.67 0.36 2.34 -1 2 C-0.67 1.34 -0.34 0.68 0 0 Z " fill="#5A5A5A" transform="translate(280,197)"/>
<path d="M0 0 C1.32 0 2.64 0 4 0 C5.06775224 1.96466413 6.06553465 3.96855359 7 6 C6.67 6.66 6.34 7.32 6 8 C5.54625 7.175 5.0925 6.35 4.625 5.5 C4.08875 4.675 3.5525 3.85 3 3 C2.34 3 1.68 3 1 3 C0.80664062 3.83144531 0.61328125 4.66289063 0.4140625 5.51953125 C0.02347656 7.14955078 0.02347656 7.14955078 -0.375 8.8125 C-0.63023437 9.89144531 -0.88546875 10.97039062 -1.1484375 12.08203125 C-2 15 -2 15 -4 18 C-4.04254356 16.00045254 -4.04080783 13.99958364 -4 12 C-3.67 11.67 -3.34 11.34 -3 11 C-2.7180604 8.71315662 -2.55222995 6.42636727 -2.37890625 4.12890625 C-2 2 -2 2 0 0 Z " fill="#C7C7C7" transform="translate(170,69)"/>
<path d="M0 0 C2.48525425 2.22402014 3.72744013 4.24244932 5 7.3125 C6.17417927 10.10060909 7.37657633 12.70121109 8.8125 15.375 C10 18 10 18 9 21 C8.15841464 19.73461631 7.32700252 18.46246221 6.5 17.1875 C5.80390625 16.12595703 5.80390625 16.12595703 5.09375 15.04296875 C4 13 4 13 4 10 C3.34 10 2.68 10 2 10 C2 8.02 2 6.04 2 4 C1.34 4 0.68 4 0 4 C0 2.68 0 1.36 0 0 Z " fill="#525252" transform="translate(235,90)"/>
<path d="M0 0 C0.99 0 1.98 0 3 0 C3.69608034 2.62299801 4.38215382 5.2479207 5.0625 7.875 C5.26166016 8.62136719 5.46082031 9.36773437 5.66601562 10.13671875 C7.11328125 15.7734375 7.11328125 15.7734375 6 18 C2.29377358 12.52890385 0 6.61175488 0 0 Z " fill="#6D6D6D" transform="translate(146,227)"/>
<path d="M0 0 C1.65 0.33 3.3 0.66 5 1 C5 5.95 5 10.9 5 16 C3.02 15.34 1.04 14.68 -1 14 C0.32 13.67 1.64 13.34 3 13 C3 9.37 3 5.74 3 2 C2.01 2 1.02 2 0 2 C0 1.34 0 0.68 0 0 Z " fill="#C4C4C4" transform="translate(281,201)"/>
<path d="M0 0 C2.31 0.33 4.62 0.66 7 1 C7 1.66 7 2.32 7 3 C8.134375 3.12375 9.26875 3.2475 10.4375 3.375 C15.03337785 3.94229083 19.49901249 4.92684788 24 6 C17.08173093 8.05336753 10.71184043 6.61492141 4.375 3.4375 C2.90797834 2.64079439 1.44621405 1.83388086 0 1 C0 0.67 0 0.34 0 0 Z " fill="#979797" transform="translate(244,233)"/>
<path d="M0 0 C0.66 0.33 1.32 0.66 2 1 C2 3.64 2 6.28 2 9 C3.0725 9.144375 4.145 9.28875 5.25 9.4375 C7.91662949 9.83749442 10.41399729 10.27591924 13 11 C9.3558226 13.4294516 7.28758728 13.16179575 3 13 C3 12.34 3 11.68 3 11 C2.01 10.67 1.02 10.34 0 10 C-0.74926071 6.33694766 -1.2380014 3.57644848 0 0 Z " fill="#6D6D6D" transform="translate(281,177)"/>
<path d="M0 0 C2.8446031 1.42230155 2.97447678 3.03051308 4 6 C4.55267154 8.01235904 5.07266812 10.03392921 5.5625 12.0625 C5.81128906 13.08472656 6.06007812 14.10695313 6.31640625 15.16015625 C6.54199219 16.09730469 6.76757812 17.03445312 7 18 C7.33178212 19.33372018 7.66441108 20.66723259 8 22 C7.34 22 6.68 22 6 22 C2.57142857 13.57142857 2.57142857 13.57142857 3 9 C2.34 9 1.68 9 1 9 C0.67 6.03 0.34 3.06 0 0 Z " fill="#C2C2C2" transform="translate(196,80)"/>
<path d="M0 0 C4.01146357 4.14517903 5.48393126 8.34348187 6 14 C5.54296875 16.27734375 5.54296875 16.27734375 5 18 C4.58427734 17.04287109 4.58427734 17.04287109 4.16015625 16.06640625 C3.79792969 15.24011719 3.43570313 14.41382812 3.0625 13.5625 C2.70285156 12.73878906 2.34320313 11.91507813 1.97265625 11.06640625 C1.16877677 9.05589883 1.16877677 9.05589883 0 8 C-0.14115161 5.32941149 -0.04247107 2.67567762 0 0 Z " fill="#777777" transform="translate(173,72)"/>
<path d="M0 0 C2 1 2 1 3.125 3.375 C4 6 4 6 4 9 C-1.61 9 -7.22 9 -13 9 C-13.33 7.68 -13.66 6.36 -14 5 C-13.01 5.495 -13.01 5.495 -12 6 C-12 6.66 -12 7.32 -12 8 C-7.71 8 -3.42 8 1 8 C0.67 5.36 0.34 2.72 0 0 Z " fill="#B5B5B5" transform="translate(155,253)"/>
<path d="M0 0 C4 4 4 4 4.390625 7.234375 C4.34421875 8.39453125 4.2978125 9.5546875 4.25 10.75 C4.21390625 11.92046875 4.1778125 13.0909375 4.140625 14.296875 C4.09421875 15.18890625 4.0478125 16.0809375 4 17 C3.34 17 2.68 17 2 17 C1.34 11.39 0.68 5.78 0 0 Z " fill="#9F9F9F" transform="translate(285,232)"/>
<path d="M0 0 C6.6 0 13.2 0 20 0 C20 0.33 20 0.66 20 1 C14.06 1 8.12 1 2 1 C2.66 3.64 3.32 6.28 4 9 C2 7.3125 2 7.3125 0 5 C0 3.35 0 1.7 0 0 Z " fill="#8B8B8B" transform="translate(140,211)"/>
<path d="M0 0 C1.55913346 3.11826692 0.66585225 5.67073874 0 9 C-0.99 9.495 -0.99 9.495 -2 10 C-3.0409066 11.64142963 -4.04504326 13.30712215 -5 15 C-5.33 13.68 -5.66 12.36 -6 11 C-5.34 11 -4.68 11 -4 11 C-3.896875 10.29875 -3.79375 9.5975 -3.6875 8.875 C-2.90640997 5.60862353 -1.57941257 2.9528148 0 0 Z " fill="#747474" transform="translate(267,55)"/>
<path d="M0 0 C0.66 0 1.32 0 2 0 C1.690625 1.0725 1.38125 2.145 1.0625 3.25 C0.33376508 5.82200559 -0.35164156 8.40656624 -1 11 C-5.62 11 -10.24 11 -15 11 C-15 10.67 -15 10.34 -15 10 C-9.06 9.505 -9.06 9.505 -3 9 C-2.01 6.03 -1.02 3.06 0 0 Z " fill="#575757" transform="translate(74,237)"/>
<path d="M0 0 C0.66 0 1.32 0 2 0 C2 0.99 2 1.98 2 3 C2.66 3 3.32 3 4 3 C4 5.64 4 8.28 4 11 C4.99 11.33 5.98 11.66 7 12 C7.33 13.65 7.66 15.3 8 17 C5 16 5 16 3 13 C2.40234375 10.87890625 2.40234375 10.87890625 1.9375 8.5625 C1.34926723 5.68939616 0.73115691 2.84051225 0 0 Z " fill="#B4B4B4" transform="translate(187,113)"/>
<path d="M0 0 C0.33 1.32 0.66 2.64 1 4 C0.34 4 -0.32 4 -1 4 C-1 4.99 -1 5.98 -1 7 C-1.66 7 -2.32 7 -3 7 C-3 8.98 -3 10.96 -3 13 C-3.66 13 -4.32 13 -5 13 C-5.33 14.65 -5.66 16.3 -6 18 C-7.40907283 15.18185434 -6.50872691 13.82722796 -5.5625 10.875 C-5.27503906 9.96492187 -4.98757812 9.05484375 -4.69140625 8.1171875 C-4.46324219 7.41851562 -4.23507813 6.71984375 -4 6 C-3.34 6 -2.68 6 -2 6 C-2 4.35 -2 2.7 -2 1 C-1.34 0.67 -0.68 0.34 0 0 Z " fill="#454545" transform="translate(113,209)"/>
<path d="M0 0 C1.46726798 3.81489674 0.43336419 6.29011622 -1 10 C-1.66 10 -2.32 10 -3 10 C-3 11.65 -3 13.3 -3 15 C-3.99 15.33 -4.98 15.66 -6 16 C-4.94513949 9.87903309 -3.34782974 5.24493326 0 0 Z " fill="#B1B1B1" transform="translate(142,98)"/>
<path d="M0 0 C0.66 0.33 1.32 0.66 2 1 C2 2.98 2 4.96 2 7 C0.35 7 -1.3 7 -3 7 C-3.33 5.35 -3.66 3.7 -4 2 C-2.68 2.33 -1.36 2.66 0 3 C0 2.01 0 1.02 0 0 Z " fill="#C6C6C6" transform="translate(210,108)"/>
<path d="M0 0 C0.66 0 1.32 0 2 0 C2.33 1.32 2.66 2.64 3 4 C8.28 4.33 13.56 4.66 19 5 C19 5.33 19 5.66 19 6 C16.02077407 6.02683987 13.04178705 6.04676037 10.0625 6.0625 C8.78729492 6.07506836 8.78729492 6.07506836 7.48632812 6.08789062 C6.67744141 6.09111328 5.86855469 6.09433594 5.03515625 6.09765625 C4.2862915 6.10289307 3.53742676 6.10812988 2.76586914 6.11352539 C1 6 1 6 0 5 C-0.04063832 3.33382885 -0.042721 1.66611905 0 0 Z " fill="#8B8B8B" transform="translate(162,94)"/>
<path d="M0 0 C3 3.75 3 3.75 3 6 C3.66 6 4.32 6 5 6 C5.53229326 7.26607607 6.05044544 8.53810412 6.5625 9.8125 C6.85253906 10.52019531 7.14257812 11.22789062 7.44140625 11.95703125 C8 14 8 14 7 17 C6.74605469 16.48050781 6.49210937 15.96101562 6.23046875 15.42578125 C4.67426589 12.2725762 3.14010585 9.22016634 1.25 6.25 C0 4 0 4 0 0 Z " fill="#737373" transform="translate(57,212)"/>
<path d="M0 0 C0.99 0.33 1.98 0.66 3 1 C3 1.99 3 2.98 3 4 C6.96 4 10.92 4 15 4 C15 3.01 15 2.02 15 1 C15.99 1 16.98 1 18 1 C17.34 2.32 16.68 3.64 16 5 C11.38 5 6.76 5 2 5 C1.34 3.35 0.68 1.7 0 0 Z " fill="#D0D0D0" transform="translate(243,106)"/>
<path d="M0 0 C0.99 0 1.98 0 3 0 C3 1.98 3 3.96 3 6 C3.66 6 4.32 6 5 6 C5.33 9.3 5.66 12.6 6 16 C5.34 15.67 4.68 15.34 4 15 C3.18359375 12.3828125 3.18359375 12.3828125 2.4375 9.125 C1.71627053 6.0233396 1.0072857 3.0218571 0 0 Z " fill="#4E4E4E" transform="translate(186,52)"/>
<path d="M0 0 C1.32341307 4.03325887 0.51033679 6.26833092 -1.03125 10.09375 C-2.28430484 12.55943856 -3.87897532 14.24466923 -6 16 C-4.25 9.25 -4.25 9.25 -2 7 C-1.28072705 4.68234271 -0.6090107 2.34904126 0 0 Z " fill="#B7B7B7" transform="translate(75,208)"/>
<path d="M0 0 C1.13757948 4.55031791 0.4283779 6.63084406 -1 11 C-1.66 11 -2.32 11 -3 11 C-3 12.32 -3 13.64 -3 15 C-3.99 14.67 -4.98 14.34 -6 14 C-4.02 9.38 -2.04 4.76 0 0 Z " fill="#C0C0C0" transform="translate(261,70)"/>
<path d="M0 0 C0.93045933 2.55144824 1.08564091 3.74006478 0.22265625 6.359375 C-0.16019531 7.14828125 -0.54304687 7.9371875 -0.9375 8.75 C-1.50791016 9.94882812 -1.50791016 9.94882812 -2.08984375 11.171875 C-2.39019531 11.77515625 -2.69054687 12.3784375 -3 13 C-4.10096216 9.73381227 -3.9223497 7.98446051 -2.625 4.8125 C-2.34914062 4.11769531 -2.07328125 3.42289063 -1.7890625 2.70703125 C-1 1 -1 1 0 0 Z " fill="#8F8F8F" transform="translate(159,51)"/>
<path d="M0 0 C1.258125 0.12375 2.51625 0.2475 3.8125 0.375 C4.87404297 0.47941406 4.87404297 0.47941406 5.95703125 0.5859375 C8 1 8 1 11 3 C11 3.66 11 4.32 11 5 C12.32 5.33 13.64 5.66 15 6 C14.01 6.495 14.01 6.495 13 7 C12.01 6.67 11.02 6.34 10 6 C10 5.34 10 4.68 10 4 C8.68 4 7.36 4 6 4 C6 3.34 6 2.68 6 2 C4.02 2 2.04 2 0 2 C0 1.34 0 0.68 0 0 Z " fill="#4B4B4B" transform="translate(269,210)"/>
<path d="M0 0 C0 0.99 0 1.98 0 3 C-0.928125 3.1546875 -0.928125 3.1546875 -1.875 3.3125 C-4.36526484 3.87525373 -4.36526484 3.87525373 -6 7 C-6.33 5.02 -6.66 3.04 -7 1 C-4 0 -4 0 0 0 Z " fill="#262626" transform="translate(294,201)"/>
<path d="M0 0 C0.99 0.33 1.98 0.66 3 1 C3 1.66 3 2.32 3 3 C2.38125 3.2475 1.7625 3.495 1.125 3.75 C-1.35068687 5.20628639 -1.95125002 6.37812506 -3 9 C-3.1875 5.625 -3.1875 5.625 -3 2 C-2.01 1.34 -1.02 0.68 0 0 Z " fill="#C4C4C4" transform="translate(273,76)"/>
<path d="M0 0 C2.64836661 3.12988781 4.0048268 6.0193072 5 10 C4.625 12.375 4.625 12.375 4 14 C1.21536982 11.21536982 1.45734346 8.85475206 1 5 C0.68033861 3.33065717 0.35268934 1.6626783 0 0 Z " fill="#B4B4B4" transform="translate(185,51)"/>
<path d="M0 0 C0.33 0 0.66 0 1 0 C0.91266424 1.60517097 0.80447776 3.20921662 0.6875 4.8125 C0.62949219 5.70582031 0.57148437 6.59914062 0.51171875 7.51953125 C-0.06313581 10.30604 -0.8206856 11.24135754 -3 13 C-2.343621 8.51474352 -1.29925791 4.33085971 0 0 Z " fill="#B4B4B4" transform="translate(104,233)"/>
<path d="M0 0 C0.99 0 1.98 0 3 0 C3 2.31 3 4.62 3 7 C3.66 7 4.32 7 5 7 C5 8.65 5 10.3 5 12 C1.66226291 8.35883227 1.02135098 4.71392758 0 0 Z " fill="#515151" transform="translate(200,90)"/>
<path d="M0 0 C1.12377697 3.30435084 0.89554742 5.0506862 -0.4375 8.25 C-0.72496094 8.95640625 -1.01242188 9.6628125 -1.30859375 10.390625 C-1.53675781 10.92171875 -1.76492187 11.4528125 -2 12 C-2.66 12 -3.32 12 -4 12 C-3.34 9.03 -2.68 6.06 -2 3 C-1.34 3 -0.68 3 0 3 C0 2.01 0 1.02 0 0 Z " fill="#CFCFCF" transform="translate(150,77)"/>
<path d="M0 0 C0.66 0 1.32 0 2 0 C3.625 2.5 3.625 2.5 5 5 C3.68 5 2.36 5 1 5 C1 5.99 1 6.98 1 8 C0.34 7.67 -0.32 7.34 -1 7 C-0.67 4.69 -0.34 2.38 0 0 Z " fill="#303030" transform="translate(236,227)"/>
<path d="M0 0 C0.25 2.3125 0.25 2.3125 0 5 C-2 6.8125 -2 6.8125 -4 8 C-4.1875 5.125 -4.1875 5.125 -4 2 C-1 0 -1 0 0 0 Z " fill="#525252" transform="translate(275,79)"/>
<path d="M0 0 C0.66 0.33 1.32 0.66 2 1 C1.34 3.31 0.68 5.62 0 8 C-0.99 7.67 -1.98 7.34 -3 7 C-2.25 2.25 -2.25 2.25 0 0 Z " fill="#B1B1B1" transform="translate(253,211)"/>
<path d="M0 0 C3.34098676 2.22732451 3.90203779 3.24862913 5 7 C4.67 7.99 4.34 8.98 4 10 C0 4.5 0 4.5 0 0 Z " fill="#787878" transform="translate(240,101)"/>
<path d="M0 0 C0.99 0 1.98 0 3 0 C2.67 2.31 2.34 4.62 2 7 C1.01 7 0.02 7 -1 7 C-0.67 4.69 -0.34 2.38 0 0 Z " fill="#D7D7D7" transform="translate(235,244)"/>
<path d="M0 0 C0.33 0.66 0.66 1.32 1 2 C1.66 2 2.32 2 3 2 C2.67 3.32 2.34 4.64 2 6 C1.67 5.34 1.34 4.68 1 4 C-1.64 4 -4.28 4 -7 4 C-7 3.67 -7 3.34 -7 3 C-4.69 3 -2.38 3 0 3 C0 2.01 0 1.02 0 0 Z " fill="#868686" transform="translate(293,197)"/>
<path d="M0 0 C1.65 0 3.3 0 5 0 C5 1.32 5 2.64 5 4 C2.03 3.505 2.03 3.505 -1 3 C-0.67 2.01 -0.34 1.02 0 0 Z " fill="#1E1E1E" transform="translate(280,197)"/>
<path d="M0 0 C2 1 2 1 3.1875 3.3125 C4.03624754 6.11989571 3.99928333 7.301935 3 10 C2.34 9.67 1.68 9.34 1 9 C0.5859375 6.93359375 0.5859375 6.93359375 0.375 4.4375 C0.30023438 3.61121094 0.22546875 2.78492187 0.1484375 1.93359375 C0.09945312 1.29550781 0.05046875 0.65742187 0 0 Z " fill="#929292" transform="translate(196,80)"/>
<path d="M0 0 C0.99 0 1.98 0 3 0 C1.92289822 4.30840713 0.96052484 7.63576723 -2 11 C-1.855625 10.29875 -1.71125 9.5975 -1.5625 8.875 C-0.98521625 5.92443859 -0.48304859 2.96729849 0 0 Z " fill="#4E4E4E" transform="translate(258,71)"/>
<path d="M0 0 C2.04219706 1.69179328 2.91793306 2.63727666 3.51171875 5.26171875 C3.56972656 6.06222656 3.62773437 6.86273438 3.6875 7.6875 C3.75324219 8.49574219 3.81898438 9.30398437 3.88671875 10.13671875 C3.92410156 10.75160156 3.96148437 11.36648437 4 12 C1.21366885 7.82050327 0 5.06624674 0 0 Z " fill="#797979" transform="translate(192,68)"/>
</svg>
